<svg xmlns="http://www.w3.org/2000/svg" width="431" height="439" viewBox="0 0 431 439">
<g fill="black" stroke="none">
<path d="M 229.5,0.0 L 231.0,0.5 L 233.0,0.5 L 233.0,1.5 L 231.0,1.5 L 229.0,1.5 L 227.0,1.5 L 225.0,1.5 L 223.0,1.5 L 221.0,1.5 L 219.0,1.5 L 217.0,1.5 L 215.0,1.5 L 213.0,1.5 L 211.0,1.5 L 209.0,1.5 L 207.0,1.5 L 205.0,1.5 L 203.0,1.5 L 201.0,1.5 L 199.0,1.5 L 198.0,2.5 L 197.0,1.5 L 195.5,2.0 L 194.0,2.5 L 192.0,2.5 L 190.0,2.5 L 188.0,2.5 L 187.0,3.5 L 185.0,3.5 L 183.0,3.5 L 181.5,4.0 L 180.0,4.5 L 178.0,4.5 L 176.0,4.5 L 175.0,5.5 L 173.0,5.5 L 171.5,6.0 L 170.0,6.5 L 168.0,6.5 L 167.0,7.5 L 165.0,7.5 L 163.0,7.5 L 162.0,8.5 L 160.0,8.5 L 159.0,9.5 L 157.0,9.5 L 155.5,10.0 L 154.0,10.5 L 152.0,10.5 L 152.0,9.5 L 154.0,9.5 L 155.0,8.5 L 156.5,8.0 L 157.5,8.0 L 158.5,8.0 L 160.0,7.5 L 161.5,7.0 L 163.0,6.5 L 164.5,6.0 L 166.0,5.5 L 168.0,5.5 L 169.0,4.5 L 171.0,4.5 L 173.0,4.5 L 174.0,3.5 L 176.0,3.5 L 178.0,3.5 L 179.0,2.5 L 181.0,2.5 L 183.0,2.5 L 185.0,2.5 L 186.0,1.5 L 188.0,1.5 L 190.0,1.5 L 191.5,1.0 L 193.0,0.5 L 195.0,0.5 L 197.0,0.5 L 198.5,0.0 Z"/>
<path d="M 240.0,2.5 L 238.0,2.5 L 236.0,2.5 L 234.5,2.0 L 236.0,1.5 L 238.0,1.5 L 240.0,1.5 L 240.0,2.5 Z"/>
<path d="M 274.0,9.5 L 272.0,9.5 L 270.5,9.0 L 269.0,8.5 L 267.0,8.5 L 266.0,7.5 L 264.0,7.5 L 262.0,7.5 L 261.0,6.5 L 259.0,6.5 L 258.0,5.5 L 256.0,5.5 L 254.0,5.5 L 253.0,4.5 L 251.0,4.5 L 249.0,4.5 L 249.0,3.5 L 251.0,3.5 L 253.0,3.5 L 255.0,3.5 L 256.0,4.5 L 258.0,4.5 L 260.0,4.5 L 262.0,4.5 L 263.0,5.5 L 265.0,5.5 L 266.5,6.0 L 268.0,6.5 L 269.0,7.5 L 271.0,7.5 L 272.0,8.5 L 274.0,8.5 L 274.0,9.5 Z"/>
<path d="M 283.0,12.5 L 281.0,12.5 L 280.0,11.5 L 278.0,11.5 L 278.0,10.5 L 280.0,10.5 L 281.5,11.0 L 283.0,11.5 L 283.0,12.5 Z"/>
<path d="M 140.0,15.5 L 138.0,15.5 L 138.0,14.5 L 139.0,13.5 L 141.0,13.5 L 142.5,13.0 L 144.0,12.5 L 145.0,11.5 L 147.0,11.5 L 148.5,12.0 L 147.0,12.5 L 146.0,13.5 L 144.0,13.5 L 143.0,14.5 L 141.0,14.5 L 140.0,15.5 Z"/>
<path d="M 318.0,28.5 L 316.5,28.0 L 315.0,27.5 L 314.0,26.5 L 312.5,26.0 L 311.0,25.5 L 310.0,24.5 L 308.5,24.0 L 307.0,23.5 L 306.0,22.5 L 304.5,22.0 L 303.0,21.5 L 302.0,20.5 L 300.5,20.0 L 299.0,19.5 L 298.0,18.5 L 296.5,18.0 L 295.0,17.5 L 293.5,17.0 L 292.0,16.5 L 290.5,16.0 L 289.0,15.5 L 288.0,14.5 L 286.5,14.0 L 288.0,13.5 L 289.5,14.0 L 291.0,14.5 L 292.5,15.0 L 294.0,15.5 L 295.5,16.0 L 297.0,16.5 L 298.0,17.5 L 299.5,18.0 L 301.0,18.5 L 302.0,19.5 L 303.5,20.0 L 305.0,20.5 L 306.0,21.5 L 308.0,21.5 L 309.0,22.5 L 310.5,23.0 L 312.0,23.5 L 313.0,24.5 L 314.0,25.5 L 315.5,26.0 L 317.0,26.5 L 318.0,27.5 L 318.0,28.5 Z"/>
<path d="M 133.0,18.5 L 131.0,18.5 L 131.0,17.5 L 132.5,17.0 L 134.0,16.5 L 135.0,15.5 L 137.0,15.5 L 137.0,16.5 L 135.5,17.0 L 134.0,17.5 L 133.0,18.5 Z"/>
<path d="M 94.0,40.5 L 92.5,40.0 L 93.5,39.0 L 94.5,38.0 L 96.0,37.5 L 97.0,36.5 L 98.0,35.5 L 99.0,34.5 L 100.5,34.0 L 101.5,33.0 L 103.0,32.5 L 104.0,31.5 L 105.0,30.5 L 106.5,30.0 L 107.5,29.0 L 109.0,28.5 L 110.5,28.0 L 112.0,27.5 L 113.0,26.5 L 114.0,25.5 L 115.5,25.0 L 116.5,24.0 L 118.0,23.5 L 119.0,22.5 L 120.5,22.0 L 122.0,21.5 L 123.5,21.0 L 125.0,20.5 L 126.5,21.0 L 125.0,21.5 L 124.0,22.5 L 122.5,23.0 L 121.0,23.5 L 120.0,24.5 L 118.5,25.0 L 117.0,25.5 L 116.0,26.5 L 115.0,27.5 L 113.5,28.0 L 112.0,28.5 L 111.0,29.5 L 109.5,30.0 L 108.5,31.0 L 107.0,31.5 L 106.0,32.5 L 104.5,33.0 L 103.5,34.0 L 102.0,34.5 L 101.0,35.5 L 100.0,36.5 L 98.5,37.0 L 97.5,38.0 L 96.5,39.0 L 95.0,39.5 L 94.0,40.5 Z"/>
<path d="M 323.0,31.5 L 321.5,31.0 L 320.0,30.5 L 319.0,29.5 L 319.0,28.5 L 320.5,29.0 L 322.0,29.5 L 323.0,30.5 L 323.0,31.5 Z"/>
<path d="M 329.0,35.5 L 327.5,35.0 L 326.5,34.0 L 325.0,33.5 L 324.0,32.5 L 324.0,31.5 L 325.5,32.0 L 327.0,32.5 L 328.0,33.5 L 329.0,34.5 L 329.0,35.5 Z"/>
<path d="M 347.0,49.5 L 346.0,48.5 L 344.5,48.0 L 343.5,47.0 L 342.5,46.0 L 341.5,45.0 L 340.5,44.0 L 339.0,43.5 L 338.0,42.5 L 337.0,41.5 L 336.0,40.5 L 334.5,40.0 L 333.5,39.0 L 332.5,38.0 L 334.0,37.5 L 335.0,38.5 L 336.5,39.0 L 337.5,40.0 L 339.0,40.5 L 340.0,41.5 L 341.0,42.5 L 342.0,43.5 L 343.5,44.0 L 344.0,45.5 L 345.5,46.0 L 346.5,47.0 L 347.5,48.0 L 347.0,49.5 Z"/>
<path d="M 0.0,218.5 L 0.5,217.0 L 0.5,215.0 L 0.5,213.0 L 0.5,211.0 L 0.5,209.0 L 0.5,207.0 L 0.5,205.0 L 0.5,203.0 L 0.5,201.0 L 1.5,200.0 L 1.0,198.5 L 1.0,197.5 L 1.5,196.0 L 1.5,194.0 L 1.5,192.0 L 1.0,190.5 L 1.0,189.5 L 1.5,188.0 L 2.5,187.0 L 2.5,185.0 L 2.5,183.0 L 2.5,181.0 L 3.0,179.5 L 3.5,178.0 L 3.5,176.0 L 4.0,174.5 L 4.5,173.0 L 4.5,171.0 L 4.5,169.0 L 5.0,167.5 L 5.5,166.0 L 5.5,164.0 L 6.5,163.0 L 7.0,161.5 L 7.0,160.5 L 7.0,159.5 L 7.5,158.0 L 8.5,157.0 L 8.5,155.0 L 9.5,154.0 L 10.5,153.0 L 10.5,151.0 L 10.5,149.0 L 11.5,148.0 L 12.5,147.0 L 12.5,145.0 L 13.0,143.5 L 13.5,142.0 L 14.5,141.0 L 15.5,140.0 L 16.5,139.0 L 15.5,138.0 L 16.5,137.0 L 16.5,135.0 L 17.0,133.5 L 18.0,132.5 L 19.0,131.5 L 19.5,130.0 L 20.5,129.0 L 20.5,127.0 L 21.0,125.5 L 21.5,124.0 L 22.5,123.0 L 23.0,121.5 L 23.5,120.0 L 24.5,119.0 L 25.0,117.5 L 25.5,116.0 L 26.5,115.0 L 27.0,113.5 L 28.5,113.0 L 29.0,111.5 L 29.0,110.5 L 29.0,109.5 L 30.5,109.0 L 30.5,107.0 L 31.5,106.0 L 32.5,105.0 L 33.0,103.5 L 34.0,102.5 L 35.0,101.5 L 35.5,100.0 L 36.5,99.0 L 37.0,97.5 L 37.5,96.0 L 38.5,95.0 L 39.0,93.5 L 40.0,92.5 L 41.0,91.5 L 41.5,90.0 L 42.5,89.0 L 43.0,87.5 L 44.5,87.0 L 45.5,86.0 L 46.5,85.0 L 47.0,83.5 L 48.0,82.5 L 48.5,81.0 L 49.5,80.0 L 50.5,79.0 L 51.5,78.0 L 52.5,77.0 L 53.0,75.5 L 54.0,74.5 L 55.0,73.5 L 55.5,72.0 L 56.5,71.0 L 58.0,70.5 L 59.0,69.5 L 59.5,68.0 L 60.5,67.0 L 62.0,66.5 L 62.5,65.0 L 64.0,64.5 L 65.0,63.5 L 66.0,62.5 L 66.5,61.0 L 68.0,60.5 L 68.5,59.0 L 70.0,58.5 L 71.0,57.5 L 72.0,56.5 L 73.0,55.5 L 74.5,55.0 L 75.0,53.5 L 76.5,53.0 L 77.0,51.5 L 78.0,50.5 L 79.5,50.0 L 80.5,49.0 L 81.5,48.0 L 82.5,47.0 L 84.0,46.5 L 84.5,45.0 L 86.0,44.5 L 87.0,43.5 L 88.5,43.0 L 89.0,41.5 L 90.5,41.0 L 92.0,40.5 L 92.0,41.5 L 91.0,42.5 L 90.0,43.5 L 89.0,44.5 L 87.5,45.0 L 86.5,46.0 L 85.5,47.0 L 84.5,48.0 L 83.5,49.0 L 82.0,49.5 L 81.0,50.5 L 80.0,51.5 L 79.0,52.5 L 78.0,53.5 L 77.0,54.5 L 76.0,55.5 L 75.0,56.5 L 74.0,57.5 L 72.5,58.0 L 72.0,59.5 L 70.5,60.0 L 69.5,61.0 L 68.5,62.0 L 67.5,63.0 L 67.0,64.5 L 66.0,65.5 L 65.0,66.5 L 64.0,67.5 L 63.0,68.5 L 62.0,69.5 L 61.0,70.5 L 60.0,71.5 L 59.0,72.5 L 58.5,74.0 L 57.5,75.0 L 56.5,76.0 L 55.5,77.0 L 54.5,78.0 L 53.5,79.0 L 53.0,80.5 L 52.0,81.5 L 51.0,82.5 L 50.0,83.5 L 49.5,85.0 L 48.5,86.0 L 47.5,87.0 L 46.5,88.0 L 46.0,89.5 L 45.0,90.5 L 44.5,92.0 L 43.5,93.0 L 42.5,94.0 L 42.0,95.5 L 41.0,96.5 L 40.5,98.0 L 39.5,99.0 L 38.5,100.0 L 38.0,101.5 L 37.0,102.5 L 36.5,104.0 L 35.5,105.0 L 35.0,106.5 L 34.5,108.0 L 33.5,109.0 L 33.0,110.5 L 32.5,112.0 L 31.5,113.0 L 30.5,114.0 L 30.0,115.5 L 29.5,117.0 L 28.5,118.0 L 28.0,119.5 L 27.5,121.0 L 27.0,122.5 L 26.0,123.5 L 25.5,125.0 L 25.0,126.5 L 24.5,128.0 L 23.5,129.0 L 23.0,130.5 L 22.5,132.0 L 22.0,133.5 L 21.5,135.0 L 21.0,136.5 L 20.5,138.0 L 19.5,139.0 L 19.5,141.0 L 18.5,142.0 L 18.5,144.0 L 17.5,145.0 L 17.5,147.0 L 16.5,148.0 L 16.5,150.0 L 15.5,151.0 L 15.5,153.0 L 15.0,154.5 L 14.5,156.0 L 14.0,157.5 L 13.5,159.0 L 13.5,161.0 L 12.5,162.0 L 12.5,164.0 L 12.0,165.5 L 11.5,167.0 L 11.5,169.0 L 11.0,170.5 L 10.5,172.0 L 10.5,174.0 L 10.5,176.0 L 9.5,177.0 L 9.5,179.0 L 9.5,181.0 L 9.5,183.0 L 8.5,184.0 L 8.5,186.0 L 8.5,188.0 L 8.5,190.0 L 8.5,192.0 L 8.0,193.5 L 7.5,195.0 L 7.5,197.0 L 7.5,199.0 L 7.5,201.0 L 7.5,203.0 L 7.5,205.0 L 7.5,207.0 L 7.5,209.0 L 7.5,211.0 L 7.5,213.0 L 7.5,215.0 L 7.5,217.0 L 7.5,219.0 L 7.5,221.0 L 7.5,223.0 L 7.5,225.0 L 7.5,227.0 L 7.5,229.0 L 8.0,230.5 L 8.5,232.0 L 8.5,234.0 L 8.5,236.0 L 8.5,238.0 L 8.5,240.0 L 9.5,241.0 L 9.5,243.0 L 9.5,245.0 L 10.5,246.0 L 10.5,248.0 L 10.5,250.0 L 11.0,251.5 L 11.5,253.0 L 11.5,255.0 L 12.0,256.5 L 12.5,258.0 L 12.5,260.0 L 13.5,261.0 L 13.5,263.0 L 14.0,264.5 L 14.5,266.0 L 15.0,267.5 L 15.5,269.0 L 15.5,271.0 L 16.5,272.0 L 16.5,274.0 L 17.5,275.0 L 17.5,277.0 L 18.5,278.0 L 18.5,280.0 L 19.5,281.0 L 19.5,283.0 L 20.5,284.0 L 21.0,285.5 L 21.5,287.0 L 22.0,288.5 L 22.5,290.0 L 23.5,291.0 L 23.5,293.0 L 24.5,294.0 L 25.0,295.5 L 25.5,297.0 L 26.5,298.0 L 27.0,299.5 L 27.5,301.0 L 28.5,302.0 L 28.5,304.0 L 29.5,305.0 L 30.0,306.5 L 30.5,308.0 L 31.5,309.0 L 32.0,310.5 L 33.0,311.5 L 33.5,313.0 L 34.5,314.0 L 35.0,315.5 L 36.0,316.5 L 36.5,318.0 L 37.5,319.0 L 38.0,320.5 L 39.0,321.5 L 39.5,323.0 L 40.5,324.0 L 41.0,325.5 L 43.0,325.5 L 45.0,325.5 L 47.0,325.5 L 49.0,325.5 L 51.0,325.5 L 53.0,325.5 L 55.0,325.5 L 55.0,324.5 L 53.0,324.5 L 51.0,324.5 L 49.0,324.5 L 47.0,324.5 L 45.0,324.5 L 45.0,323.5 L 47.0,323.5 L 49.0,323.5 L 51.0,323.5 L 53.0,323.5 L 54.5,323.0 L 56.0,322.5 L 57.5,322.0 L 58.5,322.0 L 59.0,323.5 L 59.5,322.0 L 59.5,320.0 L 60.5,319.0 L 60.5,317.0 L 61.5,316.0 L 62.0,314.5 L 62.5,313.0 L 63.5,312.0 L 64.5,311.0 L 65.5,310.0 L 66.5,309.0 L 67.5,308.0 L 69.0,307.5 L 70.0,306.5 L 71.0,305.5 L 72.5,305.0 L 74.0,304.5 L 75.5,304.0 L 77.0,303.5 L 78.5,303.0 L 80.0,302.5 L 82.0,302.5 L 83.5,302.0 L 85.0,301.5 L 87.0,301.5 L 88.5,301.0 L 87.5,300.0 L 88.5,299.0 L 89.5,298.0 L 90.5,297.0 L 91.5,297.0 L 92.5,297.0 L 92.5,295.0 L 93.5,294.0 L 93.5,292.0 L 94.0,290.5 L 94.5,289.0 L 94.5,287.0 L 93.0,286.5 L 91.0,286.5 L 89.0,286.5 L 87.0,286.5 L 85.0,286.5 L 83.5,286.0 L 82.5,285.0 L 81.5,284.0 L 81.5,282.0 L 82.5,281.0 L 83.5,280.0 L 85.0,279.5 L 87.0,279.5 L 89.0,279.5 L 91.0,279.5 L 93.0,279.5 L 95.0,279.5 L 96.0,278.5 L 96.5,277.0 L 97.0,275.5 L 97.5,274.0 L 97.5,272.0 L 98.5,271.0 L 98.5,269.0 L 99.5,268.0 L 99.5,266.0 L 100.5,265.0 L 100.5,263.0 L 101.5,262.0 L 102.0,260.5 L 102.5,259.0 L 103.5,258.0 L 104.0,256.5 L 104.5,255.0 L 105.5,254.0 L 106.5,253.0 L 107.0,251.5 L 107.5,250.0 L 108.5,249.0 L 109.0,247.5 L 110.0,246.5 L 110.5,245.0 L 111.5,244.0 L 112.5,243.0 L 113.5,242.0 L 114.0,240.5 L 115.0,239.5 L 116.0,238.5 L 117.0,237.5 L 118.0,236.5 L 119.0,235.5 L 119.5,234.0 L 120.5,233.0 L 122.0,232.5 L 123.0,231.5 L 124.0,230.5 L 125.0,229.5 L 126.0,228.5 L 127.0,227.5 L 128.0,226.5 L 129.0,225.5 L 130.5,225.0 L 131.5,224.0 L 133.0,223.5 L 134.0,222.5 L 135.0,221.5 L 136.5,221.0 L 138.0,220.5 L 139.0,219.5 L 140.0,218.5 L 141.5,218.0 L 143.0,217.5 L 144.0,216.5 L 145.5,216.0 L 147.0,215.5 L 148.0,214.5 L 150.0,214.5 L 151.0,213.5 L 153.0,213.5 L 154.0,212.5 L 156.0,212.5 L 157.0,211.5 L 159.0,211.5 L 160.0,210.5 L 162.0,210.5 L 164.0,210.5 L 165.0,209.5 L 167.0,209.5 L 169.0,209.5 L 169.5,208.0 L 168.5,207.0 L 168.0,205.5 L 167.0,204.5 L 166.5,203.0 L 165.5,202.0 L 165.0,200.5 L 164.0,199.5 L 163.5,198.0 L 162.5,197.0 L 161.5,196.0 L 160.5,195.0 L 159.5,194.0 L 159.5,192.0 L 160.5,191.0 L 161.5,190.0 L 163.0,189.5 L 164.5,190.0 L 165.5,191.0 L 166.5,192.0 L 167.5,193.0 L 169.0,193.5 L 171.0,193.5 L 173.0,193.5 L 174.5,193.0 L 174.5,191.0 L 174.5,189.0 L 174.5,187.0 L 174.0,185.5 L 174.0,184.5 L 175.0,183.5 L 175.5,185.0 L 175.5,187.0 L 175.5,189.0 L 175.5,191.0 L 175.5,193.0 L 175.5,195.0 L 175.5,197.0 L 176.5,197.0 L 176.5,195.0 L 176.5,193.0 L 176.5,191.0 L 176.5,189.0 L 176.5,187.0 L 176.5,185.0 L 176.5,183.0 L 177.5,182.0 L 178.5,181.0 L 180.0,180.5 L 181.5,181.0 L 182.5,182.0 L 183.5,183.0 L 183.5,185.0 L 183.5,187.0 L 183.5,189.0 L 183.5,191.0 L 183.5,193.0 L 184.0,194.5 L 184.5,193.0 L 184.5,191.0 L 184.5,189.0 L 184.5,187.0 L 184.5,185.0 L 185.0,183.5 L 185.5,185.0 L 185.5,187.0 L 185.5,189.0 L 185.5,191.0 L 186.0,192.5 L 187.0,193.5 L 188.5,194.0 L 189.0,195.5 L 190.0,194.5 L 190.5,193.0 L 192.0,192.5 L 193.0,191.5 L 194.0,190.5 L 195.5,190.0 L 197.0,189.5 L 198.0,190.5 L 198.5,192.0 L 198.5,194.0 L 198.0,195.5 L 198.0,196.5 L 198.5,198.0 L 197.0,198.5 L 196.0,197.5 L 195.0,198.5 L 194.5,200.0 L 193.5,201.0 L 193.0,202.5 L 192.0,203.5 L 191.5,205.0 L 190.5,206.0 L 189.5,207.0 L 189.0,208.5 L 189.0,209.5 L 191.0,209.5 L 193.0,209.5 L 194.5,210.0 L 196.0,210.5 L 198.0,210.5 L 199.5,211.0 L 201.0,211.5 L 202.5,212.0 L 204.0,212.5 L 205.5,213.0 L 207.0,213.5 L 208.5,214.0 L 210.0,214.5 L 211.0,215.5 L 213.0,215.5 L 214.0,216.5 L 215.5,217.0 L 217.0,217.5 L 218.0,218.5 L 219.0,219.5 L 220.5,220.0 L 222.0,220.5 L 223.0,221.5 L 224.0,222.5 L 225.5,223.0 L 226.5,224.0 L 228.0,224.5 L 229.0,225.5 L 230.0,224.5 L 230.5,223.0 L 231.5,222.0 L 232.0,220.5 L 232.5,219.0 L 233.5,218.0 L 234.5,217.0 L 235.0,215.5 L 235.5,214.0 L 236.5,213.0 L 237.0,211.5 L 237.5,210.0 L 238.5,209.0 L 239.5,208.0 L 240.0,206.5 L 240.5,205.0 L 241.5,204.0 L 242.0,202.5 L 242.5,201.0 L 243.5,200.0 L 244.0,198.5 L 245.0,197.5 L 245.5,196.0 L 246.5,195.0 L 247.0,193.5 L 247.0,192.5 L 246.0,191.5 L 244.5,191.0 L 243.0,190.5 L 242.0,189.5 L 240.5,189.0 L 239.0,188.5 L 238.0,187.5 L 237.0,186.5 L 235.5,186.0 L 234.0,185.5 L 233.0,184.5 L 231.5,184.0 L 230.0,183.5 L 229.0,182.5 L 227.5,182.0 L 226.0,181.5 L 225.0,180.5 L 223.5,180.0 L 222.5,179.0 L 221.0,178.5 L 220.0,177.5 L 218.5,177.0 L 217.0,176.5 L 216.0,175.5 L 214.5,175.0 L 213.0,174.5 L 212.0,173.5 L 210.5,173.0 L 209.0,172.5 L 208.0,171.5 L 206.5,171.0 L 205.0,170.5 L 204.0,169.5 L 202.5,169.0 L 202.0,167.5 L 201.0,166.5 L 200.0,165.5 L 199.0,164.5 L 197.5,164.0 L 196.5,163.0 L 195.5,162.0 L 194.5,161.0 L 193.5,160.0 L 192.0,159.5 L 191.0,158.5 L 190.0,157.5 L 189.0,156.5 L 188.0,155.5 L 186.5,155.0 L 185.5,154.0 L 184.5,153.0 L 183.5,152.0 L 182.0,151.5 L 181.0,150.5 L 180.0,149.5 L 179.0,148.5 L 178.0,147.5 L 177.0,146.5 L 176.0,145.5 L 174.5,145.0 L 173.5,144.0 L 172.5,143.0 L 171.5,142.0 L 170.0,141.5 L 169.0,140.5 L 168.0,139.5 L 167.0,138.5 L 166.0,137.5 L 165.0,136.5 L 163.5,136.0 L 162.5,135.0 L 161.5,134.0 L 160.5,133.0 L 159.5,132.0 L 158.0,131.5 L 157.0,130.5 L 156.0,129.5 L 155.0,128.5 L 154.0,127.5 L 153.0,126.5 L 151.5,126.0 L 150.5,125.0 L 149.5,124.0 L 148.5,123.0 L 147.5,122.0 L 146.0,121.5 L 145.0,120.5 L 144.0,119.5 L 143.0,118.5 L 141.5,118.0 L 140.5,117.0 L 139.5,116.0 L 138.5,115.0 L 138.5,113.0 L 139.5,112.0 L 140.0,110.5 L 141.0,109.5 L 142.5,109.0 L 143.5,108.0 L 145.0,107.5 L 146.0,106.5 L 147.0,105.5 L 148.0,104.5 L 149.5,104.0 L 150.5,103.0 L 152.0,102.5 L 153.0,101.5 L 154.5,101.0 L 155.5,100.0 L 157.0,99.5 L 158.0,98.5 L 159.5,98.0 L 161.0,97.5 L 162.0,96.5 L 163.5,96.0 L 164.5,95.0 L 166.0,94.5 L 167.5,94.0 L 169.0,93.5 L 170.0,92.5 L 171.5,92.0 L 173.0,91.5 L 174.0,90.5 L 176.0,90.5 L 177.0,89.5 L 178.5,89.0 L 180.0,88.5 L 181.5,88.0 L 183.0,87.5 L 184.0,86.5 L 186.0,86.5 L 187.5,86.0 L 189.0,85.5 L 190.5,85.0 L 192.0,84.5 L 193.5,84.0 L 195.0,83.5 L 197.0,83.5 L 198.0,82.5 L 200.0,82.5 L 202.0,82.5 L 203.0,81.5 L 205.0,81.5 L 207.0,81.5 L 208.0,80.5 L 210.0,80.5 L 212.0,80.5 L 213.5,80.0 L 215.0,79.5 L 217.0,79.5 L 219.0,79.5 L 221.0,79.5 L 223.0,79.5 L 224.5,79.0 L 223.0,78.5 L 221.0,78.5 L 219.0,78.5 L 217.5,78.0 L 219.0,77.5 L 221.0,77.5 L 223.0,77.5 L 225.0,77.5 L 226.0,78.5 L 228.0,78.5 L 230.0,78.5 L 232.0,78.5 L 234.0,78.5 L 236.0,78.5 L 237.0,79.5 L 239.0,79.5 L 241.0,79.5 L 243.0,79.5 L 245.0,79.5 L 247.0,79.5 L 249.0,79.5 L 250.0,80.5 L 252.0,80.5 L 254.0,80.5 L 256.0,80.5 L 257.0,81.5 L 259.0,81.5 L 261.0,81.5 L 262.0,82.5 L 264.0,82.5 L 266.0,82.5 L 267.0,83.5 L 269.0,83.5 L 270.5,84.0 L 272.0,84.5 L 273.5,85.0 L 275.0,85.5 L 277.0,85.5 L 278.0,86.5 L 280.0,86.5 L 281.0,87.5 L 283.0,87.5 L 284.0,88.5 L 285.5,89.0 L 287.0,89.5 L 288.5,90.0 L 290.0,90.5 L 291.5,91.0 L 293.0,91.5 L 294.0,92.5 L 295.5,93.0 L 297.0,93.5 L 298.5,94.0 L 300.0,94.5 L 301.0,93.5 L 301.5,92.0 L 302.5,91.0 L 303.0,89.5 L 303.5,88.0 L 304.5,87.0 L 305.5,86.0 L 306.5,85.0 L 307.5,84.0 L 309.0,83.5 L 311.0,83.5 L 312.5,84.0 L 314.0,84.5 L 315.0,85.5 L 316.0,86.5 L 316.5,88.0 L 316.5,90.0 L 316.5,92.0 L 316.5,94.0 L 315.5,95.0 L 315.0,96.5 L 314.5,98.0 L 314.0,99.5 L 313.0,100.5 L 313.0,101.5 L 314.0,102.5 L 315.0,103.5 L 316.5,104.0 L 317.5,105.0 L 319.0,105.5 L 320.0,106.5 L 321.0,107.5 L 322.5,108.0 L 323.5,109.0 L 325.0,109.5 L 326.0,110.5 L 327.0,111.5 L 328.0,112.5 L 329.5,113.0 L 330.5,114.0 L 331.5,115.0 L 332.5,116.0 L 333.5,117.0 L 335.0,117.5 L 336.0,118.5 L 337.0,119.5 L 338.0,120.5 L 339.0,121.5 L 340.0,122.5 L 341.0,123.5 L 342.0,124.5 L 343.0,125.5 L 344.0,126.5 L 345.0,127.5 L 346.0,128.5 L 347.0,129.5 L 348.0,130.5 L 349.0,131.5 L 350.0,132.5 L 351.0,133.5 L 351.5,135.0 L 352.5,136.0 L 353.5,137.0 L 354.5,138.0 L 355.5,139.0 L 356.5,140.0 L 357.0,141.5 L 358.0,142.5 L 359.0,143.5 L 359.5,145.0 L 360.5,146.0 L 361.5,147.0 L 362.0,148.5 L 363.0,149.5 L 363.5,151.0 L 364.5,152.0 L 365.5,153.0 L 366.0,154.5 L 367.0,155.5 L 367.5,157.0 L 368.5,158.0 L 369.0,159.5 L 370.0,160.5 L 370.5,162.0 L 371.5,163.0 L 371.5,165.0 L 372.5,166.0 L 373.0,167.5 L 373.5,169.0 L 374.5,170.0 L 375.0,171.5 L 375.5,173.0 L 376.5,174.0 L 376.5,176.0 L 377.5,177.0 L 378.0,178.5 L 378.5,180.0 L 379.0,181.5 L 379.5,183.0 L 380.0,184.5 L 380.5,186.0 L 381.0,187.5 L 381.5,189.0 L 381.5,191.0 L 382.5,192.0 L 382.5,194.0 L 383.0,195.5 L 383.5,197.0 L 383.5,199.0 L 384.5,200.0 L 384.5,202.0 L 385.0,203.5 L 385.5,205.0 L 385.5,207.0 L 385.5,209.0 L 386.0,210.5 L 386.5,212.0 L 386.5,214.0 L 386.5,216.0 L 386.5,218.0 L 387.0,219.5 L 387.5,221.0 L 387.5,223.0 L 387.5,225.0 L 387.5,227.0 L 387.5,229.0 L 387.5,231.0 L 387.5,233.0 L 387.5,235.0 L 387.0,236.5 L 386.5,238.0 L 386.5,240.0 L 386.5,242.0 L 386.5,244.0 L 386.5,246.0 L 385.5,247.0 L 384.0,247.5 L 382.0,247.5 L 380.0,247.5 L 379.0,246.5 L 377.0,246.5 L 376.0,245.5 L 374.0,245.5 L 373.0,244.5 L 371.0,244.5 L 370.0,243.5 L 368.0,243.5 L 366.5,243.0 L 365.0,242.5 L 363.5,242.0 L 362.0,241.5 L 360.5,241.0 L 359.0,240.5 L 357.0,240.5 L 356.0,239.5 L 354.5,239.0 L 353.0,238.5 L 351.0,238.5 L 350.0,237.5 L 348.0,237.5 L 347.0,236.5 L 345.0,236.5 L 344.0,235.5 L 342.0,235.5 L 340.5,235.0 L 339.0,234.5 L 337.5,234.0 L 336.0,233.5 L 334.5,233.0 L 333.0,232.5 L 331.5,232.0 L 330.0,231.5 L 328.5,231.0 L 327.0,230.5 L 325.5,230.0 L 324.0,229.5 L 322.5,229.0 L 321.0,228.5 L 319.5,228.0 L 318.0,227.5 L 316.5,227.0 L 315.0,226.5 L 313.5,226.0 L 312.0,225.5 L 310.5,225.0 L 309.0,224.5 L 307.5,224.0 L 306.0,223.5 L 304.0,223.5 L 302.0,223.5 L 301.0,222.5 L 300.0,221.5 L 298.5,221.0 L 297.5,220.0 L 296.0,219.5 L 295.0,218.5 L 294.0,217.5 L 292.5,217.0 L 291.0,216.5 L 290.0,215.5 L 288.5,215.0 L 287.5,214.0 L 286.0,213.5 L 285.0,212.5 L 283.5,212.0 L 282.0,211.5 L 281.0,210.5 L 279.5,210.0 L 278.0,209.5 L 277.0,208.5 L 275.5,208.0 L 274.0,207.5 L 273.0,206.5 L 272.0,205.5 L 270.0,205.5 L 269.0,204.5 L 268.0,203.5 L 266.5,203.0 L 265.0,202.5 L 264.0,201.5 L 262.5,201.0 L 261.5,201.0 L 260.5,202.0 L 260.0,203.5 L 259.5,205.0 L 258.5,206.0 L 258.0,207.5 L 257.5,209.0 L 256.5,210.0 L 256.0,211.5 L 255.0,212.5 L 254.5,214.0 L 253.5,215.0 L 253.0,216.5 L 252.5,218.0 L 251.5,219.0 L 251.0,220.5 L 250.5,222.0 L 249.5,223.0 L 250.5,223.0 L 251.5,223.0 L 251.0,224.5 L 250.0,225.5 L 249.0,224.5 L 248.5,226.0 L 247.5,227.0 L 247.0,228.5 L 246.5,230.0 L 245.5,231.0 L 244.5,232.0 L 244.0,233.5 L 243.5,235.0 L 242.5,236.0 L 242.0,237.5 L 242.0,238.5 L 243.0,239.5 L 243.5,241.0 L 244.5,242.0 L 245.5,243.0 L 246.5,244.0 L 247.0,245.5 L 248.0,246.5 L 248.5,248.0 L 249.5,249.0 L 251.0,249.5 L 252.5,250.0 L 251.0,250.5 L 251.0,251.5 L 251.5,253.0 L 252.5,254.0 L 253.0,255.5 L 253.5,257.0 L 254.0,258.5 L 254.5,260.0 L 255.5,261.0 L 256.0,262.5 L 256.5,264.0 L 257.5,265.0 L 257.5,267.0 L 258.5,268.0 L 258.5,270.0 L 259.0,271.5 L 259.5,273.0 L 259.5,275.0 L 260.5,276.0 L 260.5,278.0 L 261.0,279.5 L 263.0,279.5 L 265.0,279.5 L 267.0,279.5 L 269.0,279.5 L 271.0,279.5 L 273.0,279.5 L 274.0,280.5 L 275.0,281.5 L 275.5,283.0 L 275.0,284.5 L 274.0,285.5 L 273.0,286.5 L 271.0,286.5 L 269.0,286.5 L 267.0,286.5 L 265.0,286.5 L 263.0,286.5 L 262.5,288.0 L 263.5,289.0 L 263.5,291.0 L 263.5,293.0 L 264.5,294.0 L 264.5,296.0 L 264.5,298.0 L 265.5,299.0 L 265.5,301.0 L 266.0,302.5 L 267.5,302.0 L 269.0,301.5 L 271.0,301.5 L 273.0,301.5 L 274.5,302.0 L 276.0,302.5 L 278.0,302.5 L 280.0,302.5 L 281.0,303.5 L 283.0,303.5 L 284.0,304.5 L 285.5,305.0 L 287.0,305.5 L 288.0,306.5 L 289.5,307.0 L 291.0,307.5 L 292.0,308.5 L 293.0,309.5 L 294.0,310.5 L 295.0,311.5 L 295.5,313.0 L 296.5,314.0 L 297.5,315.0 L 298.0,316.5 L 298.5,318.0 L 299.0,319.5 L 299.5,321.0 L 299.5,323.0 L 299.5,325.0 L 301.0,325.5 L 303.0,325.5 L 305.0,325.5 L 307.0,325.5 L 309.0,325.5 L 311.0,325.5 L 313.0,325.5 L 315.0,325.5 L 317.0,325.5 L 319.0,325.5 L 321.0,325.5 L 323.0,325.5 L 325.0,325.5 L 327.0,325.5 L 329.0,325.5 L 331.0,325.5 L 333.0,325.5 L 335.0,325.5 L 337.0,325.5 L 339.0,325.5 L 341.0,325.5 L 343.0,325.5 L 345.0,325.5 L 346.0,326.5 L 346.5,328.0 L 346.5,330.0 L 345.5,331.0 L 344.5,332.0 L 343.0,332.5 L 341.0,332.5 L 339.0,332.5 L 337.0,332.5 L 335.0,332.5 L 333.0,332.5 L 331.0,332.5 L 329.0,332.5 L 327.0,332.5 L 325.0,332.5 L 323.0,332.5 L 321.0,332.5 L 319.0,332.5 L 317.0,332.5 L 315.0,332.5 L 313.0,332.5 L 311.0,332.5 L 309.0,332.5 L 307.0,332.5 L 305.0,332.5 L 303.0,332.5 L 301.5,333.0 L 302.5,334.0 L 301.0,334.5 L 300.0,335.5 L 299.0,334.5 L 299.0,333.5 L 299.0,332.5 L 297.5,333.0 L 297.0,334.5 L 296.5,336.0 L 295.5,337.0 L 295.0,338.5 L 294.0,339.5 L 293.0,340.5 L 292.0,341.5 L 291.0,342.5 L 290.0,343.5 L 289.0,344.5 L 288.0,345.5 L 286.5,346.0 L 285.0,346.5 L 284.0,347.5 L 282.0,347.5 L 280.5,347.0 L 279.0,346.5 L 278.0,345.5 L 277.0,346.5 L 276.0,347.5 L 274.5,348.0 L 273.0,348.5 L 272.0,349.5 L 270.0,349.5 L 268.5,349.0 L 267.0,348.5 L 266.0,347.5 L 265.0,346.5 L 263.0,346.5 L 262.0,347.5 L 260.0,347.5 L 258.0,347.5 L 256.5,347.0 L 255.0,346.5 L 254.0,345.5 L 253.5,344.0 L 252.0,343.5 L 250.0,343.5 L 248.5,343.0 L 247.0,342.5 L 246.0,341.5 L 245.0,340.5 L 244.5,339.0 L 243.5,338.0 L 243.5,336.0 L 243.0,334.5 L 241.5,335.0 L 240.0,335.5 L 238.5,335.0 L 237.5,334.0 L 237.0,332.5 L 235.0,332.5 L 233.0,332.5 L 231.0,332.5 L 229.0,332.5 L 227.0,332.5 L 225.0,332.5 L 223.0,332.5 L 221.0,332.5 L 219.0,332.5 L 217.0,332.5 L 215.0,332.5 L 213.0,332.5 L 211.0,332.5 L 209.0,332.5 L 207.0,332.5 L 205.0,332.5 L 203.0,332.5 L 201.0,332.5 L 199.0,332.5 L 197.0,332.5 L 195.0,332.5 L 193.0,332.5 L 191.0,332.5 L 189.0,332.5 L 187.0,332.5 L 185.0,332.5 L 183.0,332.5 L 181.0,332.5 L 179.0,332.5 L 177.0,332.5 L 175.0,332.5 L 173.0,332.5 L 171.0,332.5 L 169.0,332.5 L 167.0,332.5 L 165.0,332.5 L 163.0,332.5 L 161.0,332.5 L 159.0,332.5 L 157.0,332.5 L 155.0,332.5 L 153.0,332.5 L 151.0,332.5 L 149.0,332.5 L 147.0,332.5 L 145.0,332.5 L 143.0,332.5 L 141.0,332.5 L 139.0,332.5 L 137.0,332.5 L 135.0,332.5 L 133.0,332.5 L 131.0,332.5 L 129.0,332.5 L 127.0,332.5 L 125.0,332.5 L 123.0,332.5 L 121.0,332.5 L 121.0,333.5 L 122.5,334.0 L 121.5,335.0 L 120.0,335.5 L 118.5,336.0 L 117.5,336.0 L 117.5,334.0 L 119.0,333.5 L 119.0,332.5 L 117.0,332.5 L 116.5,334.0 L 116.5,336.0 L 116.0,337.5 L 115.5,339.0 L 114.5,340.0 L 114.0,341.5 L 113.0,342.5 L 111.5,343.0 L 110.0,343.5 L 108.0,343.5 L 106.0,343.5 L 105.0,344.5 L 104.5,346.0 L 103.0,346.5 L 102.0,347.5 L 100.0,347.5 L 98.0,347.5 L 96.0,347.5 L 95.0,346.5 L 94.0,345.5 L 93.0,346.5 L 92.0,347.5 L 91.0,348.5 L 89.5,349.0 L 88.0,349.5 L 86.0,349.5 L 85.0,348.5 L 83.5,348.0 L 82.5,347.0 L 81.5,346.0 L 80.0,345.5 L 79.0,346.5 L 77.0,346.5 L 75.0,346.5 L 73.0,346.5 L 72.0,345.5 L 70.5,345.0 L 69.5,344.0 L 68.5,343.0 L 67.5,342.0 L 66.5,341.0 L 65.5,340.0 L 64.5,339.0 L 64.0,337.5 L 63.5,336.0 L 62.5,335.0 L 61.5,335.0 L 60.0,335.5 L 58.5,335.0 L 57.0,334.5 L 57.0,333.5 L 58.5,333.0 L 57.0,332.5 L 55.0,332.5 L 53.0,332.5 L 51.0,332.5 L 49.0,332.5 L 47.0,332.5 L 45.5,333.0 L 46.5,334.0 L 47.5,335.0 L 48.5,336.0 L 49.0,337.5 L 50.0,338.5 L 51.0,339.5 L 52.0,340.5 L 53.0,341.5 L 53.5,343.0 L 54.5,344.0 L 55.5,345.0 L 56.5,346.0 L 57.0,347.5 L 58.0,348.5 L 59.0,349.5 L 60.0,350.5 L 60.5,352.0 L 61.5,353.0 L 62.5,354.0 L 63.5,355.0 L 64.5,356.0 L 65.5,357.0 L 66.5,358.0 L 67.5,359.0 L 68.5,360.0 L 69.5,361.0 L 70.5,362.0 L 71.5,363.0 L 72.5,364.0 L 73.5,365.0 L 74.5,366.0 L 75.5,367.0 L 76.5,368.0 L 77.5,369.0 L 78.5,370.0 L 79.5,371.0 L 80.5,372.0 L 81.5,373.0 L 83.0,373.5 L 84.0,374.5 L 85.0,375.5 L 86.0,376.5 L 87.0,377.5 L 88.0,378.5 L 89.5,379.0 L 90.5,380.0 L 91.5,381.0 L 92.5,382.0 L 94.0,382.5 L 95.0,383.5 L 96.0,384.5 L 97.5,385.0 L 98.5,386.0 L 100.0,386.5 L 101.0,387.5 L 102.0,388.5 L 103.5,389.0 L 104.5,390.0 L 106.0,390.5 L 107.0,391.5 L 108.0,392.5 L 109.5,393.0 L 111.0,393.5 L 112.0,394.5 L 113.0,395.5 L 114.5,396.0 L 116.0,396.5 L 117.0,397.5 L 118.5,398.0 L 119.5,399.0 L 121.0,399.5 L 122.0,400.5 L 124.0,400.5 L 125.0,401.5 L 126.5,402.0 L 128.0,402.5 L 129.0,403.5 L 130.5,404.0 L 132.0,404.5 L 133.0,405.5 L 134.5,406.0 L 136.0,406.5 L 137.0,407.5 L 139.0,407.5 L 140.0,408.5 L 142.0,408.5 L 143.0,409.5 L 144.5,410.0 L 146.0,410.5 L 147.5,411.0 L 149.0,411.5 L 150.5,412.0 L 152.0,412.5 L 153.5,413.0 L 155.0,413.5 L 157.0,413.5 L 158.0,414.5 L 160.0,414.5 L 161.5,415.0 L 163.0,415.5 L 164.5,416.0 L 166.0,416.5 L 168.0,416.5 L 169.0,417.5 L 171.0,417.5 L 173.0,417.5 L 174.0,418.5 L 176.0,418.5 L 178.0,418.5 L 179.0,419.5 L 181.0,419.5 L 183.0,419.5 L 184.5,420.0 L 186.0,420.5 L 188.0,420.5 L 190.0,420.5 L 192.0,420.5 L 193.5,421.0 L 195.0,421.5 L 197.0,421.5 L 199.0,421.5 L 201.0,421.5 L 203.0,421.5 L 205.0,421.5 L 207.0,421.5 L 208.0,422.5 L 210.0,422.5 L 212.0,422.5 L 214.0,422.5 L 216.0,422.5 L 218.0,422.5 L 220.0,422.5 L 222.0,422.5 L 223.0,421.5 L 225.0,421.5 L 227.0,421.5 L 229.0,421.5 L 231.0,421.5 L 233.0,421.5 L 234.5,421.0 L 236.0,420.5 L 238.0,420.5 L 240.0,420.5 L 242.0,420.5 L 243.5,420.0 L 245.0,419.5 L 247.0,419.5 L 249.0,419.5 L 250.0,418.5 L 252.0,418.5 L 254.0,418.5 L 255.0,417.5 L 257.0,417.5 L 259.0,417.5 L 260.0,416.5 L 262.0,416.5 L 263.5,416.0 L 265.0,415.5 L 266.5,415.0 L 268.0,414.5 L 270.0,414.5 L 271.0,413.5 L 273.0,413.5 L 274.0,412.5 L 276.0,412.5 L 277.0,411.5 L 279.0,411.5 L 280.0,410.5 L 282.0,410.5 L 283.0,409.5 L 285.0,409.5 L 286.0,408.5 L 288.0,408.5 L 289.0,407.5 L 290.5,407.0 L 292.0,406.5 L 293.0,405.5 L 295.0,405.5 L 296.0,404.5 L 297.5,404.0 L 299.0,403.5 L 300.0,402.5 L 301.5,402.0 L 303.0,401.5 L 304.0,400.5 L 305.5,400.0 L 307.0,399.5 L 308.0,398.5 L 309.5,398.0 L 311.0,397.5 L 312.0,396.5 L 313.5,396.0 L 315.0,395.5 L 316.0,394.5 L 317.0,393.5 L 318.5,393.0 L 320.0,392.5 L 321.0,391.5 L 322.0,390.5 L 323.5,390.0 L 324.5,389.0 L 326.0,388.5 L 327.0,387.5 L 328.0,386.5 L 329.5,386.0 L 330.5,385.0 L 332.0,384.5 L 333.0,383.5 L 334.0,382.5 L 335.0,381.5 L 336.5,381.0 L 337.5,380.0 L 338.5,379.0 L 340.0,378.5 L 341.0,377.5 L 342.0,376.5 L 343.0,375.5 L 344.0,374.5 L 345.5,374.0 L 346.5,373.0 L 347.5,372.0 L 348.5,371.0 L 349.5,370.0 L 350.5,369.0 L 351.5,368.0 L 353.0,367.5 L 354.0,366.5 L 355.0,365.5 L 356.0,364.5 L 357.0,363.5 L 358.0,362.5 L 359.0,361.5 L 360.0,360.5 L 361.0,359.5 L 362.0,358.5 L 363.0,357.5 L 364.0,356.5 L 365.0,355.5 L 365.5,354.0 L 366.5,353.0 L 367.5,352.0 L 368.5,351.0 L 369.5,350.0 L 370.5,349.0 L 371.5,348.0 L 372.0,346.5 L 373.0,345.5 L 374.0,344.5 L 375.0,343.5 L 376.0,342.5 L 376.5,341.0 L 377.5,340.0 L 378.5,339.0 L 379.5,338.0 L 380.0,336.5 L 381.0,335.5 L 382.0,334.5 L 382.5,333.0 L 383.5,332.0 L 384.5,331.0 L 385.0,329.5 L 386.0,328.5 L 386.5,327.0 L 387.5,326.0 L 388.5,325.0 L 389.0,323.5 L 390.0,322.5 L 390.5,321.0 L 391.5,320.0 L 392.0,318.5 L 393.0,317.5 L 393.5,316.0 L 394.5,315.0 L 395.0,313.5 L 395.5,312.0 L 396.5,311.0 L 397.0,309.5 L 397.5,308.0 L 398.5,307.0 L 399.5,306.0 L 400.0,304.5 L 400.5,303.0 L 401.5,302.0 L 401.5,300.0 L 402.5,299.0 L 403.0,297.5 L 403.5,296.0 L 404.5,295.0 L 405.0,293.5 L 405.5,292.0 L 406.0,290.5 L 406.5,289.0 L 407.5,288.0 L 407.5,286.0 L 408.5,285.0 L 409.0,283.5 L 409.5,282.0 L 410.0,280.5 L 410.5,279.0 L 411.0,277.5 L 411.5,276.0 L 412.0,274.5 L 412.5,273.0 L 413.0,271.5 L 413.5,270.0 L 413.5,268.0 L 414.5,267.0 L 414.5,265.0 L 415.5,264.0 L 415.5,262.0 L 416.0,260.5 L 416.5,259.0 L 416.5,257.0 L 417.5,256.0 L 417.5,254.0 L 417.5,252.0 L 418.5,251.0 L 418.5,249.0 L 418.5,247.0 L 419.0,245.5 L 419.5,244.0 L 419.5,242.0 L 419.5,240.0 L 420.5,239.0 L 420.5,237.0 L 420.5,235.0 L 420.5,233.0 L 421.0,231.5 L 421.5,230.0 L 421.5,228.0 L 421.5,226.0 L 421.5,224.0 L 421.5,222.0 L 421.5,220.0 L 422.0,218.5 L 422.5,217.0 L 422.5,215.0 L 422.5,213.0 L 422.5,211.0 L 422.5,209.0 L 422.5,207.0 L 422.5,205.0 L 422.5,203.0 L 421.5,202.0 L 421.5,200.0 L 421.5,198.0 L 421.5,196.0 L 421.5,194.0 L 421.5,192.0 L 421.5,190.0 L 420.5,189.0 L 420.5,187.0 L 420.5,185.0 L 420.5,183.0 L 420.0,181.5 L 419.5,180.0 L 419.5,178.0 L 419.5,176.0 L 418.5,175.0 L 418.5,173.0 L 418.5,171.0 L 417.5,170.0 L 417.5,168.0 L 417.0,166.5 L 416.5,165.0 L 416.5,163.0 L 416.0,161.5 L 415.5,160.0 L 415.5,158.0 L 414.5,157.0 L 414.5,155.0 L 413.5,154.0 L 413.5,152.0 L 413.0,150.5 L 412.5,149.0 L 412.0,147.5 L 411.5,146.0 L 411.0,144.5 L 410.5,143.0 L 410.0,141.5 L 409.5,140.0 L 409.0,138.5 L 408.5,137.0 L 407.5,136.0 L 407.5,134.0 L 406.5,133.0 L 406.0,131.5 L 405.5,130.0 L 405.0,128.5 L 404.5,127.0 L 403.5,126.0 L 403.0,124.5 L 402.5,123.0 L 402.0,121.5 L 401.0,120.5 L 400.5,119.0 L 400.0,117.5 L 399.5,116.0 L 398.5,115.0 L 398.0,113.5 L 397.5,112.0 L 396.5,111.0 L 395.5,110.0 L 395.0,108.5 L 394.5,107.0 L 393.5,106.0 L 393.0,104.5 L 392.0,103.5 L 391.5,102.0 L 390.5,101.0 L 390.0,99.5 L 389.0,98.5 L 388.5,97.0 L 387.5,96.0 L 386.5,95.0 L 386.0,93.5 L 385.0,92.5 L 384.5,91.0 L 383.5,90.0 L 382.5,89.0 L 382.0,87.5 L 381.0,86.5 L 380.5,85.0 L 379.5,84.0 L 378.5,83.0 L 377.5,82.0 L 376.5,81.0 L 376.0,79.5 L 375.0,78.5 L 374.0,77.5 L 373.0,76.5 L 372.5,75.0 L 371.5,74.0 L 370.5,73.0 L 369.5,72.0 L 368.5,71.0 L 367.5,70.0 L 366.5,69.0 L 365.5,68.0 L 364.5,67.0 L 364.0,65.5 L 363.0,64.5 L 362.0,63.5 L 361.0,62.5 L 360.0,61.5 L 359.0,60.5 L 358.0,59.5 L 357.0,58.5 L 356.0,57.5 L 355.0,56.5 L 354.0,55.5 L 353.0,54.5 L 351.5,54.0 L 350.5,53.0 L 349.5,52.0 L 348.5,51.0 L 347.5,50.0 L 349.0,49.5 L 350.0,50.5 L 351.5,51.0 L 353.0,51.5 L 353.5,53.0 L 355.0,53.5 L 355.5,55.0 L 357.0,55.5 L 358.0,56.5 L 359.0,57.5 L 359.5,59.0 L 361.0,59.5 L 362.0,60.5 L 363.0,61.5 L 363.5,63.0 L 364.5,64.0 L 365.5,65.0 L 367.0,65.5 L 368.0,66.5 L 369.0,67.5 L 369.5,69.0 L 371.0,69.5 L 371.5,71.0 L 373.0,71.5 L 374.0,72.5 L 375.0,73.5 L 375.5,75.0 L 376.0,76.5 L 377.5,77.0 L 378.5,78.0 L 379.5,79.0 L 379.5,81.0 L 381.0,81.5 L 382.0,82.5 L 383.0,83.5 L 383.5,85.0 L 384.5,86.0 L 385.0,87.5 L 386.5,88.0 L 387.0,89.5 L 388.0,90.5 L 389.0,91.5 L 389.5,93.0 L 390.5,94.0 L 391.0,95.5 L 391.5,97.0 L 392.5,98.0 L 393.5,99.0 L 394.5,100.0 L 395.5,101.0 L 396.0,102.5 L 397.0,103.5 L 397.0,104.5 L 397.0,105.5 L 398.0,106.5 L 398.5,108.0 L 399.5,109.0 L 400.5,110.0 L 401.0,111.5 L 401.5,113.0 L 402.5,114.0 L 403.5,115.0 L 404.5,116.0 L 405.5,117.0 L 405.5,119.0 L 405.5,121.0 L 406.5,122.0 L 407.0,123.5 L 408.0,124.5 L 408.5,126.0 L 409.5,127.0 L 410.0,128.5 L 411.0,129.5 L 411.5,131.0 L 411.5,133.0 L 413.0,133.5 L 413.5,135.0 L 413.5,137.0 L 414.5,138.0 L 415.0,139.5 L 415.5,141.0 L 416.5,142.0 L 416.5,144.0 L 417.5,145.0 L 418.5,146.0 L 418.5,148.0 L 418.5,150.0 L 419.5,151.0 L 419.5,153.0 L 419.5,155.0 L 420.5,156.0 L 421.5,157.0 L 421.5,159.0 L 421.5,161.0 L 422.5,162.0 L 423.0,163.5 L 423.5,165.0 L 423.5,167.0 L 424.0,168.5 L 424.5,170.0 L 424.5,172.0 L 425.0,173.5 L 425.5,175.0 L 425.5,177.0 L 426.0,178.5 L 427.0,179.5 L 427.0,180.5 L 427.0,181.5 L 427.5,183.0 L 427.5,185.0 L 427.5,187.0 L 428.5,188.0 L 429.0,189.5 L 429.0,190.5 L 428.5,192.0 L 428.5,194.0 L 429.5,195.0 L 429.5,197.0 L 429.5,199.0 Z"/>
<path d="M 221.5,130.0 L 222.5,129.0 L 223.5,128.0 L 224.5,127.0 L 225.5,126.0 L 226.5,125.0 L 227.5,124.0 L 228.5,123.0 L 229.5,122.0 L 230.5,121.0 L 231.5,120.0 L 233.0,119.5 L 234.0,118.5 L 235.0,117.5 L 236.0,116.5 L 237.0,115.5 L 238.0,114.5 L 239.5,114.0 L 240.5,113.0 L 241.5,112.0 L 242.5,111.0 L 244.0,110.5 L 245.0,109.5 L 246.0,108.5 L 247.5,108.0 L 249.0,107.5 L 250.0,106.5 L 251.0,105.5 L 252.5,105.0 L 253.5,104.0 L 255.0,103.5 L 256.0,102.5 L 257.5,102.0 L 259.0,101.5 L 260.5,101.0 L 262.0,100.5 L 263.0,99.5 L 265.0,99.5 L 266.0,98.5 L 268.0,98.5 L 269.0,97.5 L 271.0,97.5 L 272.0,96.5 L 274.0,96.5 L 275.5,96.0 L 277.0,95.5 L 279.0,95.5 L 281.0,95.5 L 281.0,94.5 L 279.0,94.5 L 278.0,93.5 L 276.0,93.5 L 275.0,92.5 L 273.0,92.5 L 271.5,92.0 L 270.0,91.5 L 268.5,91.0 L 267.0,90.5 L 265.0,90.5 L 264.0,89.5 L 262.0,89.5 L 260.0,89.5 L 259.0,88.5 L 257.0,88.5 L 255.0,88.5 L 254.0,87.5 L 252.0,87.5 L 250.0,87.5 L 248.0,87.5 L 246.5,87.0 L 245.0,86.5 L 243.0,86.5 L 241.0,86.5 L 239.0,86.5 L 237.0,86.5 L 235.0,86.5 L 233.0,86.5 L 231.0,86.5 L 229.0,86.5 L 227.0,86.5 L 225.0,86.5 L 223.0,86.5 L 221.0,86.5 L 219.5,87.0 L 218.5,87.0 L 217.5,87.0 L 216.0,87.5 L 214.0,87.5 L 212.0,87.5 L 210.0,87.5 L 209.0,88.5 L 207.0,88.5 L 205.0,88.5 L 204.0,89.5 L 202.0,89.5 L 200.0,89.5 L 199.0,90.5 L 197.0,90.5 L 195.5,91.0 L 194.0,91.5 L 192.0,91.5 L 191.0,92.5 L 189.0,92.5 L 188.0,93.5 L 186.0,93.5 L 185.0,94.5 L 183.0,94.5 L 182.0,95.5 L 180.0,95.5 L 179.0,96.5 L 177.5,97.0 L 176.0,97.5 L 175.0,98.5 L 173.5,99.0 L 172.0,99.5 L 171.0,100.5 L 169.5,101.0 L 168.0,101.5 L 167.0,102.5 L 165.0,102.5 L 164.0,103.5 L 163.0,104.5 L 161.5,105.0 L 160.0,105.5 L 159.0,106.5 L 157.5,107.0 L 156.5,108.0 L 155.0,108.5 L 155.0,109.5 L 156.5,109.0 L 157.5,109.0 L 158.5,110.0 L 160.0,110.5 L 162.0,110.5 L 164.0,110.5 L 165.5,111.0 L 167.0,111.5 L 169.0,111.5 L 170.5,112.0 L 172.0,112.5 L 174.0,112.5 L 175.5,113.0 L 177.0,113.5 L 179.0,113.5 L 180.0,114.5 L 182.0,114.5 L 183.5,115.0 L 185.0,115.5 L 186.5,116.0 L 188.0,116.5 L 189.5,117.0 L 191.0,117.5 L 192.0,118.5 L 194.0,118.5 L 196.0,118.5 L 197.0,119.5 L 199.0,119.5 L 200.0,120.5 L 201.5,121.0 L 203.0,121.5 L 204.0,122.5 L 206.0,122.5 L 207.0,123.5 L 208.5,124.0 L 209.5,125.0 L 211.0,125.5 L 212.0,126.5 L 213.5,127.0 L 215.0,127.5 L 216.0,128.5 L 217.5,129.0 L 218.5,130.0 L 220.0,130.5 L 221.5,130.0 Z"/>
<path d="M 307.5,98.0 L 308.0,96.5 L 308.5,95.0 L 309.5,94.0 L 310.0,92.5 L 310.5,91.0 L 309.5,91.0 L 308.5,92.0 L 308.0,93.5 L 307.5,95.0 L 306.5,96.0 L 306.0,97.5 L 306.0,98.5 L 307.5,98.0 Z"/>
<path d="M 325.5,188.0 L 325.5,186.0 L 326.0,184.5 L 326.5,183.0 L 326.5,181.0 L 327.5,180.0 L 327.5,178.0 L 327.5,176.0 L 327.5,174.0 L 327.5,172.0 L 328.5,171.0 L 328.5,169.0 L 328.5,167.0 L 328.5,165.0 L 328.5,163.0 L 328.5,161.0 L 328.5,159.0 L 328.5,157.0 L 328.5,155.0 L 328.5,153.0 L 328.5,151.0 L 328.5,149.0 L 328.5,147.0 L 327.5,146.0 L 327.5,144.0 L 327.5,142.0 L 326.5,141.0 L 326.5,139.0 L 326.5,137.0 L 325.5,136.0 L 325.5,134.0 L 324.5,133.0 L 324.5,131.0 L 323.5,130.0 L 323.5,128.0 L 322.5,127.0 L 322.5,125.0 L 321.5,124.0 L 321.0,122.5 L 320.0,121.5 L 319.5,120.0 L 318.5,119.0 L 318.0,117.5 L 317.5,116.0 L 316.5,115.0 L 316.0,113.5 L 315.0,112.5 L 314.0,111.5 L 313.0,110.5 L 312.0,109.5 L 310.5,109.0 L 309.5,108.0 L 308.0,107.5 L 307.0,106.5 L 305.5,106.0 L 304.5,105.0 L 303.0,104.5 L 302.0,103.5 L 300.5,103.0 L 299.0,102.5 L 298.0,101.5 L 296.0,101.5 L 295.0,100.5 L 293.0,100.5 L 291.0,100.5 L 289.0,100.5 L 287.0,100.5 L 285.0,100.5 L 283.0,100.5 L 281.0,100.5 L 279.5,101.0 L 278.0,101.5 L 276.0,101.5 L 275.0,102.5 L 273.0,102.5 L 271.5,103.0 L 270.0,103.5 L 268.5,104.0 L 267.0,104.5 L 266.0,105.5 L 264.0,105.5 L 263.0,106.5 L 261.5,107.0 L 260.0,107.5 L 259.0,108.5 L 257.5,109.0 L 256.0,109.5 L 255.0,110.5 L 253.5,111.0 L 252.5,112.0 L 251.0,112.5 L 250.0,113.5 L 249.0,114.5 L 247.5,115.0 L 246.5,116.0 L 245.0,116.5 L 244.0,117.5 L 243.0,118.5 L 242.0,119.5 L 240.5,120.0 L 239.5,121.0 L 238.5,122.0 L 237.5,123.0 L 236.5,124.0 L 235.5,125.0 L 234.5,126.0 L 233.5,127.0 L 232.5,128.0 L 231.5,129.0 L 230.5,130.0 L 229.5,131.0 L 228.5,132.0 L 227.5,133.0 L 228.0,134.5 L 230.0,134.5 L 231.0,135.5 L 233.0,135.5 L 234.0,136.5 L 235.5,137.0 L 237.0,137.5 L 238.5,138.0 L 240.0,138.5 L 241.0,139.5 L 243.0,139.5 L 244.0,140.5 L 245.5,141.0 L 247.0,141.5 L 248.5,142.0 L 250.0,142.5 L 251.0,143.5 L 252.5,144.0 L 254.0,144.5 L 255.0,145.5 L 257.0,145.5 L 258.0,146.5 L 259.5,147.0 L 261.0,147.5 L 262.0,148.5 L 263.5,149.0 L 265.0,149.5 L 266.0,150.5 L 267.5,151.0 L 268.5,152.0 L 270.0,152.5 L 271.0,153.5 L 272.5,154.0 L 274.0,154.5 L 275.0,155.5 L 276.5,156.0 L 278.0,156.5 L 279.0,157.5 L 280.5,158.0 L 282.0,158.5 L 283.0,159.5 L 284.5,160.0 L 285.5,161.0 L 287.0,161.5 L 288.0,162.5 L 289.5,163.0 L 290.5,164.0 L 292.0,164.5 L 293.0,165.5 L 294.5,166.0 L 296.0,166.5 L 297.0,167.5 L 298.0,168.5 L 299.5,169.0 L 300.5,170.0 L 302.0,170.5 L 303.0,171.5 L 304.0,172.5 L 305.5,173.0 L 306.5,174.0 L 308.0,174.5 L 309.0,175.5 L 310.0,176.5 L 311.5,177.0 L 312.5,178.0 L 314.0,178.5 L 315.0,179.5 L 316.0,180.5 L 317.0,181.5 L 318.0,182.5 L 319.5,183.0 L 320.5,184.0 L 321.5,185.0 L 322.5,186.0 L 323.5,187.0 L 324.5,188.0 L 325.5,188.0 Z"/>
<path d="M 206.5,161.0 L 207.5,160.0 L 208.5,159.0 L 209.5,158.0 L 210.5,157.0 L 211.5,156.0 L 212.5,155.0 L 213.5,154.0 L 214.5,153.0 L 215.5,152.0 L 217.0,151.5 L 218.0,150.5 L 219.0,149.5 L 220.0,148.5 L 221.0,147.5 L 222.0,146.5 L 223.0,145.5 L 224.5,145.0 L 225.5,144.0 L 226.5,143.0 L 228.0,142.5 L 228.0,141.5 L 226.5,141.0 L 225.0,140.5 L 223.5,140.0 L 222.0,139.5 L 220.0,139.5 L 218.5,139.0 L 217.5,138.0 L 216.5,137.0 L 215.5,136.0 L 214.0,135.5 L 213.0,134.5 L 212.0,133.5 L 210.5,133.0 L 209.5,132.0 L 208.0,131.5 L 207.0,130.5 L 205.5,130.0 L 204.0,129.5 L 203.0,128.5 L 201.5,128.0 L 200.0,127.5 L 199.0,126.5 L 197.0,126.5 L 196.0,125.5 L 194.5,125.0 L 193.0,124.5 L 191.5,124.0 L 190.0,123.5 L 188.5,123.0 L 187.0,122.5 L 185.5,122.0 L 184.0,121.5 L 182.0,121.5 L 181.0,120.5 L 179.0,120.5 L 177.5,120.0 L 176.0,119.5 L 174.0,119.5 L 173.0,118.5 L 171.0,118.5 L 169.5,118.0 L 168.0,117.5 L 166.0,117.5 L 164.0,117.5 L 162.5,117.0 L 161.0,116.5 L 159.0,116.5 L 157.0,116.5 L 155.0,116.5 L 153.0,116.5 L 151.5,117.0 L 152.5,118.0 L 153.5,119.0 L 155.0,119.5 L 156.0,120.5 L 157.0,121.5 L 158.0,122.5 L 159.0,123.5 L 160.0,124.5 L 161.0,125.5 L 162.0,126.5 L 163.5,127.0 L 164.5,128.0 L 165.5,129.0 L 166.5,130.0 L 167.5,131.0 L 169.0,131.5 L 170.0,132.5 L 171.0,133.5 L 172.0,134.5 L 173.0,135.5 L 174.0,136.5 L 175.5,137.0 L 176.5,138.0 L 177.5,139.0 L 178.5,140.0 L 179.5,141.0 L 181.0,141.5 L 182.0,142.5 L 183.0,143.5 L 184.0,144.5 L 185.0,145.5 L 186.0,146.5 L 187.5,147.0 L 188.5,148.0 L 189.5,149.0 L 190.5,150.0 L 192.0,150.5 L 193.0,151.5 L 194.0,152.5 L 195.0,153.5 L 196.0,154.5 L 197.5,155.0 L 198.5,156.0 L 199.5,157.0 L 200.5,158.0 L 202.0,158.5 L 203.0,159.5 L 204.0,160.5 L 205.0,161.5 L 206.5,161.0 Z"/>
<path d="M 380.5,232.0 L 380.5,230.0 L 380.5,228.0 L 380.5,226.0 L 380.5,224.0 L 380.5,222.0 L 380.0,220.5 L 379.5,219.0 L 379.5,217.0 L 379.5,215.0 L 379.5,213.0 L 379.0,211.5 L 378.5,210.0 L 378.5,208.0 L 378.0,206.5 L 376.0,206.5 L 375.5,205.0 L 375.5,203.0 L 376.0,201.5 L 376.5,203.0 L 376.5,205.0 L 377.5,205.0 L 377.5,203.0 L 377.5,201.0 L 376.5,200.0 L 376.5,198.0 L 376.0,196.5 L 375.5,195.0 L 375.5,193.0 L 374.5,192.0 L 374.5,190.0 L 373.5,189.0 L 373.5,187.0 L 372.5,186.0 L 372.5,184.0 L 371.5,183.0 L 371.5,181.0 L 370.5,180.0 L 370.0,178.5 L 369.5,177.0 L 369.0,175.5 L 368.5,174.0 L 367.5,173.0 L 367.0,171.5 L 366.5,170.0 L 365.5,169.0 L 365.0,167.5 L 364.5,166.0 L 363.5,165.0 L 363.0,163.5 L 362.5,162.0 L 361.5,161.0 L 361.0,159.5 L 360.0,158.5 L 359.5,157.0 L 358.5,156.0 L 358.0,154.5 L 357.0,153.5 L 356.0,152.5 L 355.5,151.0 L 354.5,150.0 L 353.5,149.0 L 352.5,148.0 L 352.0,146.5 L 351.0,145.5 L 350.5,144.0 L 349.5,143.0 L 348.5,142.0 L 347.5,141.0 L 346.5,140.0 L 346.0,138.5 L 345.0,137.5 L 344.0,136.5 L 343.0,135.5 L 342.0,134.5 L 341.0,133.5 L 340.0,132.5 L 339.0,131.5 L 338.0,130.5 L 337.0,129.5 L 336.0,128.5 L 335.0,127.5 L 334.0,126.5 L 333.0,125.5 L 332.0,124.5 L 331.0,123.5 L 329.5,123.0 L 328.5,122.0 L 327.5,121.0 L 326.5,120.0 L 325.5,120.0 L 326.5,121.0 L 327.0,122.5 L 327.5,124.0 L 328.5,125.0 L 328.5,127.0 L 329.5,128.0 L 329.5,130.0 L 330.5,131.0 L 331.0,132.5 L 331.5,134.0 L 331.5,136.0 L 332.5,137.0 L 332.5,139.0 L 333.0,140.5 L 333.5,142.0 L 333.5,144.0 L 333.5,146.0 L 334.5,147.0 L 334.5,149.0 L 334.5,151.0 L 334.5,153.0 L 334.5,155.0 L 335.0,156.5 L 335.5,158.0 L 335.5,160.0 L 335.5,162.0 L 334.5,163.0 L 334.5,165.0 L 334.5,167.0 L 334.5,169.0 L 334.5,171.0 L 334.5,173.0 L 334.0,174.5 L 333.5,176.0 L 333.5,178.0 L 333.5,180.0 L 333.0,181.5 L 332.5,183.0 L 332.5,185.0 L 332.0,186.5 L 331.5,188.0 L 331.5,190.0 L 333.0,190.5 L 334.5,191.0 L 334.0,192.5 L 332.5,192.0 L 331.0,191.5 L 331.0,192.5 L 332.5,193.0 L 334.0,193.5 L 335.0,194.5 L 336.5,195.0 L 338.0,195.5 L 339.0,196.5 L 340.5,197.0 L 341.5,198.0 L 343.0,198.5 L 344.0,199.5 L 345.0,200.5 L 346.5,201.0 L 347.5,202.0 L 349.0,202.5 L 350.0,203.5 L 351.0,204.5 L 352.5,205.0 L 353.5,206.0 L 354.5,207.0 L 356.0,207.5 L 357.0,208.5 L 358.0,209.5 L 359.5,210.0 L 360.5,211.0 L 361.5,212.0 L 362.5,213.0 L 363.5,214.0 L 364.5,215.0 L 365.5,216.0 L 366.5,217.0 L 367.5,218.0 L 368.5,219.0 L 369.5,220.0 L 370.5,221.0 L 371.5,222.0 L 372.5,223.0 L 373.5,224.0 L 374.5,225.0 L 375.5,226.0 L 376.5,227.0 L 377.0,228.5 L 378.0,229.5 L 379.0,230.5 L 379.5,232.0 L 380.5,232.0 Z"/>
<path d="M 335.0,132.5 L 333.5,132.0 L 332.5,131.0 L 332.5,129.0 L 333.0,127.5 L 333.5,129.0 L 334.5,130.0 L 335.0,131.5 L 335.0,132.5 Z"/>
<path d="M 250.5,186.0 L 251.5,185.0 L 250.5,185.0 L 249.0,185.5 L 248.0,184.5 L 248.0,183.5 L 249.0,182.5 L 250.5,183.0 L 252.0,183.5 L 252.5,182.0 L 253.5,181.0 L 252.5,180.0 L 253.0,178.5 L 254.0,179.5 L 255.0,178.5 L 255.5,177.0 L 256.5,176.0 L 257.0,174.5 L 257.5,173.0 L 258.5,172.0 L 259.0,170.5 L 259.5,169.0 L 260.5,168.0 L 261.0,166.5 L 262.0,165.5 L 262.5,164.0 L 263.5,163.0 L 264.0,161.5 L 264.5,160.0 L 265.5,159.0 L 265.0,157.5 L 263.5,157.0 L 262.0,156.5 L 261.0,155.5 L 259.5,155.0 L 258.0,154.5 L 257.0,153.5 L 255.5,153.0 L 254.0,152.5 L 253.0,151.5 L 251.5,151.0 L 250.0,150.5 L 249.0,149.5 L 247.0,149.5 L 246.0,148.5 L 244.5,148.0 L 243.0,147.5 L 242.0,146.5 L 240.0,146.5 L 239.0,145.5 L 237.5,145.0 L 236.0,144.5 L 234.5,144.0 L 233.5,144.0 L 232.5,145.0 L 231.5,146.0 L 230.0,146.5 L 229.0,147.5 L 228.0,148.5 L 227.0,149.5 L 226.0,150.5 L 224.5,151.0 L 223.5,152.0 L 222.5,153.0 L 221.5,154.0 L 220.5,155.0 L 219.5,156.0 L 218.5,157.0 L 217.5,158.0 L 216.5,159.0 L 215.5,160.0 L 214.5,161.0 L 213.5,162.0 L 212.5,163.0 L 212.0,164.5 L 211.5,166.0 L 213.0,166.5 L 214.0,167.5 L 215.5,168.0 L 217.0,168.5 L 218.0,169.5 L 219.5,170.0 L 221.0,170.5 L 222.0,171.5 L 223.5,172.0 L 225.0,172.5 L 226.0,173.5 L 227.0,174.5 L 228.5,175.0 L 230.0,175.5 L 231.0,176.5 L 232.5,177.0 L 233.5,178.0 L 235.0,178.5 L 236.0,179.5 L 237.5,180.0 L 239.0,180.5 L 240.0,181.5 L 241.5,182.0 L 242.5,183.0 L 244.0,183.5 L 245.0,184.5 L 246.5,185.0 L 248.0,185.5 L 249.0,186.5 L 250.5,186.0 Z"/>
<path d="M 270.5,169.0 L 271.0,167.5 L 272.0,166.5 L 272.5,165.0 L 273.5,164.0 L 273.5,162.0 L 272.0,161.5 L 271.0,162.5 L 270.5,164.0 L 269.5,165.0 L 269.0,166.5 L 268.5,168.0 L 269.5,169.0 L 270.5,169.0 Z"/>
<path d="M 376.5,238.0 L 375.5,237.0 L 374.5,236.0 L 373.5,236.0 L 372.0,236.5 L 370.5,236.0 L 371.0,234.5 L 373.0,234.5 L 373.0,233.5 L 372.0,232.5 L 371.0,231.5 L 370.0,230.5 L 369.5,229.0 L 368.5,228.0 L 367.5,227.0 L 366.5,226.0 L 365.5,225.0 L 364.5,224.0 L 363.5,223.0 L 362.5,222.0 L 361.5,221.0 L 360.5,220.0 L 359.5,219.0 L 358.5,218.0 L 357.5,217.0 L 356.5,216.0 L 355.5,215.0 L 354.5,214.0 L 353.0,213.5 L 352.0,212.5 L 351.0,211.5 L 350.0,210.5 L 348.5,210.0 L 347.5,209.0 L 346.5,208.0 L 345.0,207.5 L 344.0,206.5 L 342.5,206.0 L 341.5,205.0 L 340.0,204.5 L 339.0,203.5 L 337.5,203.0 L 336.0,202.5 L 335.0,201.5 L 333.5,201.0 L 332.0,200.5 L 331.0,199.5 L 329.5,199.0 L 328.0,198.5 L 326.0,198.5 L 324.5,198.0 L 323.5,197.0 L 322.5,196.0 L 322.0,194.5 L 321.0,193.5 L 320.0,192.5 L 319.0,191.5 L 318.0,190.5 L 317.0,189.5 L 315.5,189.0 L 314.5,188.0 L 313.0,187.5 L 312.0,186.5 L 311.0,185.5 L 310.0,184.5 L 309.0,183.5 L 307.5,183.0 L 306.5,182.0 L 305.0,181.5 L 304.0,180.5 L 303.0,179.5 L 301.5,179.0 L 300.5,178.0 L 299.0,177.5 L 298.0,176.5 L 297.0,175.5 L 295.5,175.0 L 294.5,174.0 L 293.0,173.5 L 292.0,172.5 L 290.5,172.0 L 289.5,171.0 L 288.0,170.5 L 287.0,169.5 L 286.0,168.5 L 284.5,168.0 L 283.0,167.5 L 282.0,166.5 L 280.5,166.0 L 279.5,166.0 L 278.5,167.0 L 278.0,168.5 L 277.5,170.0 L 276.5,171.0 L 276.0,172.5 L 275.5,174.0 L 274.5,175.0 L 274.0,176.5 L 273.0,177.5 L 272.5,179.0 L 271.5,180.0 L 271.0,181.5 L 270.5,183.0 L 269.5,184.0 L 269.0,185.5 L 268.5,187.0 L 267.5,188.0 L 267.0,189.5 L 266.5,191.0 L 265.5,192.0 L 266.0,193.5 L 267.0,192.5 L 268.0,193.5 L 269.0,194.5 L 270.0,195.5 L 270.0,196.5 L 268.5,196.0 L 267.5,196.0 L 268.5,197.0 L 270.0,197.5 L 271.0,198.5 L 272.5,199.0 L 274.0,199.5 L 275.0,200.5 L 276.5,201.0 L 278.0,201.5 L 279.0,202.5 L 280.5,203.0 L 282.0,203.5 L 283.0,204.5 L 284.5,205.0 L 286.0,205.5 L 287.0,206.5 L 288.0,207.5 L 289.5,208.0 L 291.0,208.5 L 292.0,209.5 L 293.5,210.0 L 295.0,210.5 L 296.0,211.5 L 297.5,212.0 L 299.0,212.5 L 300.0,213.5 L 300.0,212.5 L 300.0,211.5 L 302.0,211.5 L 302.5,213.0 L 301.5,214.0 L 302.5,214.0 L 303.5,213.0 L 303.5,211.0 L 305.0,210.5 L 306.5,211.0 L 308.0,211.5 L 308.5,213.0 L 308.5,215.0 L 308.0,216.5 L 308.0,217.5 L 310.0,217.5 L 311.0,218.5 L 313.0,218.5 L 314.0,219.5 L 316.0,219.5 L 317.5,220.0 L 319.0,220.5 L 320.0,221.5 L 322.0,221.5 L 323.0,222.5 L 325.0,222.5 L 326.0,223.5 L 328.0,223.5 L 329.0,224.5 L 331.0,224.5 L 332.5,225.0 L 334.0,225.5 L 335.5,226.0 L 337.0,226.5 L 338.5,227.0 L 340.0,227.5 L 341.5,228.0 L 343.0,228.5 L 344.5,229.0 L 346.0,229.5 L 347.5,230.0 L 349.0,230.5 L 350.5,231.0 L 352.0,231.5 L 353.5,232.0 L 355.0,232.5 L 357.0,232.5 L 358.0,233.5 L 360.0,233.5 L 361.0,234.5 L 363.0,234.5 L 364.5,235.0 L 366.0,235.5 L 367.5,236.0 L 369.0,236.5 L 370.5,237.0 L 372.0,237.5 L 373.5,238.0 L 375.0,238.5 L 376.5,238.0 Z"/>
<path d="M 245.5,217.0 L 246.0,215.5 L 247.0,214.5 L 247.5,213.0 L 248.5,212.0 L 249.0,210.5 L 249.5,209.0 L 250.5,208.0 L 250.5,206.0 L 251.5,205.0 L 252.5,204.0 L 253.0,202.5 L 253.5,201.0 L 254.5,200.0 L 255.0,198.5 L 256.0,197.5 L 256.5,196.0 L 257.5,195.0 L 258.0,193.5 L 258.5,192.0 L 259.5,191.0 L 260.0,189.5 L 260.5,188.0 L 261.5,187.0 L 262.0,185.5 L 262.5,184.0 L 263.5,183.0 L 264.0,181.5 L 264.5,180.0 L 265.5,179.0 L 266.0,177.5 L 266.5,176.0 L 267.5,175.0 L 267.5,173.0 L 268.5,172.0 L 267.5,171.0 L 266.5,171.0 L 266.0,172.5 L 265.5,174.0 L 264.5,175.0 L 263.5,176.0 L 263.0,177.5 L 262.5,179.0 L 261.5,180.0 L 260.5,181.0 L 260.0,182.5 L 259.5,184.0 L 258.5,185.0 L 258.0,186.5 L 257.5,188.0 L 256.5,189.0 L 256.0,190.5 L 255.5,192.0 L 254.5,193.0 L 253.5,194.0 L 253.0,195.5 L 252.5,197.0 L 251.5,198.0 L 251.0,199.5 L 250.5,201.0 L 249.5,202.0 L 249.0,203.5 L 248.5,205.0 L 247.5,206.0 L 247.0,207.5 L 246.0,208.5 L 245.5,210.0 L 244.5,211.0 L 244.0,212.5 L 243.5,214.0 L 242.5,215.0 L 243.0,216.5 L 244.5,217.0 L 245.5,217.0 Z"/>
<path d="M 315.0,178.5 L 314.0,177.5 L 312.5,177.0 L 311.5,176.0 L 313.0,175.5 L 315.0,175.5 L 315.5,177.0 L 315.0,178.5 Z"/>
<path d="M 183.5,203.0 L 184.0,201.5 L 185.0,200.5 L 186.0,199.5 L 186.5,198.0 L 187.5,197.0 L 186.0,196.5 L 184.5,196.0 L 183.5,196.0 L 183.5,198.0 L 183.5,200.0 L 183.0,201.5 L 182.5,203.0 L 183.5,203.0 Z"/>
<path d="M 175.5,203.0 L 175.5,201.0 L 175.5,199.0 L 174.0,198.5 L 172.5,198.0 L 171.5,198.0 L 172.5,199.0 L 173.0,200.5 L 174.0,201.5 L 174.5,203.0 L 175.5,203.0 Z"/>
<path d="M 190.5,281.0 L 191.0,279.5 L 191.5,278.0 L 192.0,276.5 L 192.5,275.0 L 193.5,274.0 L 194.0,272.5 L 195.0,271.5 L 196.0,270.5 L 197.0,269.5 L 198.0,268.5 L 199.0,267.5 L 200.0,266.5 L 201.0,265.5 L 202.5,265.0 L 204.0,264.5 L 205.0,263.5 L 206.5,263.0 L 208.0,262.5 L 210.0,262.5 L 211.0,261.5 L 213.0,261.5 L 215.0,261.5 L 217.0,261.5 L 219.0,261.5 L 220.0,262.5 L 222.0,262.5 L 223.5,263.0 L 225.0,263.5 L 226.0,264.5 L 227.5,265.0 L 228.5,266.0 L 230.0,266.5 L 231.0,267.5 L 232.0,268.5 L 233.0,269.5 L 234.0,270.5 L 235.0,271.5 L 235.5,273.0 L 236.5,274.0 L 237.5,275.0 L 237.5,277.0 L 238.5,278.0 L 238.5,280.0 L 240.0,280.5 L 241.0,279.5 L 243.0,279.5 L 245.0,279.5 L 247.0,279.5 L 249.0,279.5 L 251.0,279.5 L 253.0,279.5 L 253.5,278.0 L 253.0,276.5 L 252.5,275.0 L 252.0,273.5 L 251.5,272.0 L 251.0,270.5 L 250.5,269.0 L 250.0,267.5 L 249.5,266.0 L 249.0,264.5 L 248.5,263.0 L 248.0,261.5 L 247.5,260.0 L 246.5,259.0 L 246.0,257.5 L 245.5,256.0 L 244.5,255.0 L 243.5,254.0 L 243.0,252.5 L 242.5,251.0 L 241.5,250.0 L 241.0,248.5 L 240.0,247.5 L 239.0,246.5 L 238.5,245.0 L 237.5,244.0 L 236.5,243.0 L 235.5,242.0 L 234.5,241.0 L 233.5,240.0 L 232.5,239.0 L 232.0,237.5 L 231.0,236.5 L 230.0,235.5 L 228.5,235.0 L 227.5,234.0 L 226.5,233.0 L 225.5,232.0 L 224.0,231.5 L 223.0,230.5 L 222.0,229.5 L 220.5,229.0 L 219.5,228.0 L 218.5,227.0 L 217.0,226.5 L 216.0,225.5 L 214.5,225.0 L 213.0,224.5 L 212.0,223.5 L 210.5,223.0 L 209.0,222.5 L 208.0,221.5 L 206.0,221.5 L 205.0,220.5 L 203.0,220.5 L 202.0,219.5 L 200.0,219.5 L 199.0,218.5 L 197.0,218.5 L 195.5,218.0 L 194.0,217.5 L 192.0,217.5 L 190.0,217.5 L 189.0,216.5 L 187.0,216.5 L 185.0,216.5 L 183.0,216.5 L 181.0,216.5 L 179.0,216.5 L 177.0,216.5 L 175.0,216.5 L 173.0,216.5 L 171.0,216.5 L 169.0,216.5 L 168.0,217.5 L 166.0,217.5 L 164.0,217.5 L 163.0,218.5 L 161.0,218.5 L 159.5,219.0 L 158.0,219.5 L 156.0,219.5 L 155.0,220.5 L 153.5,221.0 L 152.0,221.5 L 150.5,222.0 L 149.0,222.5 L 147.5,223.0 L 146.0,223.5 L 145.0,224.5 L 143.5,225.0 L 142.5,226.0 L 141.0,226.5 L 140.0,227.5 L 139.0,228.5 L 137.5,229.0 L 136.0,229.5 L 135.0,230.5 L 134.0,231.5 L 132.5,232.0 L 131.5,233.0 L 130.5,234.0 L 129.5,235.0 L 128.5,236.0 L 127.5,237.0 L 126.5,238.0 L 125.5,239.0 L 124.5,240.0 L 123.5,241.0 L 122.5,242.0 L 121.5,243.0 L 120.5,244.0 L 120.0,245.5 L 119.0,246.5 L 118.0,247.5 L 117.0,248.5 L 116.5,250.0 L 115.5,251.0 L 114.5,252.0 L 114.0,253.5 L 113.5,255.0 L 112.5,256.0 L 112.0,257.5 L 111.5,259.0 L 110.5,260.0 L 110.0,261.5 L 109.5,263.0 L 108.5,264.0 L 108.0,265.5 L 107.5,267.0 L 107.0,268.5 L 106.5,270.0 L 106.0,271.5 L 105.5,273.0 L 105.0,274.5 L 104.5,276.0 L 104.0,277.5 L 103.5,279.0 L 105.0,279.5 L 107.0,279.5 L 109.0,279.5 L 111.0,279.5 L 113.0,279.5 L 115.0,279.5 L 117.0,279.5 L 118.0,278.5 L 118.5,277.0 L 119.5,276.0 L 120.0,274.5 L 120.5,273.0 L 121.5,272.0 L 122.5,271.0 L 123.5,270.0 L 124.5,269.0 L 125.5,268.0 L 126.5,267.0 L 127.5,266.0 L 129.0,265.5 L 130.0,264.5 L 131.5,264.0 L 133.0,263.5 L 134.0,262.5 L 136.0,262.5 L 137.0,261.5 L 139.0,261.5 L 141.0,261.5 L 143.0,261.5 L 145.0,261.5 L 146.5,262.0 L 148.0,262.5 L 150.0,262.5 L 151.0,263.5 L 152.5,264.0 L 154.0,264.5 L 155.0,265.5 L 156.0,266.5 L 157.5,267.0 L 158.5,268.0 L 159.5,269.0 L 160.5,270.0 L 161.5,271.0 L 162.5,272.0 L 163.0,273.5 L 164.0,274.5 L 164.5,276.0 L 166.0,276.5 L 168.0,276.5 L 169.0,277.5 L 169.0,278.5 L 168.0,279.5 L 166.5,280.0 L 168.0,280.5 L 169.0,279.5 L 170.5,279.0 L 172.0,278.5 L 174.0,278.5 L 175.0,277.5 L 177.0,277.5 L 179.0,277.5 L 181.0,277.5 L 183.0,277.5 L 184.0,278.5 L 186.0,278.5 L 187.0,279.5 L 188.5,280.0 L 189.5,281.0 L 190.5,281.0 Z"/>
<path d="M 237.5,232.0 L 238.0,230.5 L 239.0,229.5 L 239.5,228.0 L 240.5,227.0 L 241.0,225.5 L 241.0,224.5 L 239.0,224.5 L 239.0,223.5 L 240.0,222.5 L 241.5,223.0 L 242.5,223.0 L 243.0,221.5 L 243.5,220.0 L 244.5,219.0 L 243.5,219.0 L 242.0,219.5 L 241.0,218.5 L 240.5,220.0 L 239.5,221.0 L 238.5,222.0 L 238.0,223.5 L 237.5,225.0 L 236.5,226.0 L 236.0,227.5 L 235.0,228.5 L 234.5,230.0 L 235.0,231.5 L 236.0,232.5 L 237.5,232.0 Z"/>
<path d="M 430.0,220.5 L 429.5,222.0 L 429.5,224.0 L 429.5,226.0 L 429.5,228.0 L 429.5,230.0 L 429.5,232.0 L 429.5,234.0 L 429.5,236.0 L 429.0,237.5 L 428.5,239.0 L 428.0,240.5 L 427.5,242.0 L 428.5,243.0 L 428.0,244.5 L 428.0,245.5 L 428.0,246.5 L 427.5,248.0 L 428.5,249.0 L 427.5,250.0 L 427.5,252.0 L 427.5,254.0 L 426.5,255.0 L 426.5,257.0 L 426.5,259.0 L 425.5,260.0 L 425.5,262.0 L 425.5,264.0 L 424.5,265.0 L 424.5,267.0 L 424.0,268.5 L 423.5,270.0 L 423.5,272.0 L 422.5,273.0 L 422.0,274.5 L 422.0,275.5 L 422.0,276.5 L 421.5,278.0 L 421.5,280.0 L 420.5,281.0 L 420.0,282.5 L 419.5,284.0 L 419.5,286.0 L 418.5,287.0 L 418.0,288.5 L 417.5,290.0 L 417.0,291.5 L 416.5,293.0 L 416.0,294.5 L 415.0,295.5 L 414.5,297.0 L 414.0,298.5 L 413.5,300.0 L 413.0,301.5 L 412.5,303.0 L 412.0,304.5 L 411.5,306.0 L 411.0,307.5 L 410.0,308.5 L 409.5,310.0 L 408.5,311.0 L 408.0,312.5 L 407.5,314.0 L 406.5,315.0 L 406.0,316.5 L 406.0,317.5 L 406.0,318.5 L 405.5,320.0 L 405.0,321.5 L 404.0,322.5 L 403.5,324.0 L 402.5,325.0 L 401.5,326.0 L 400.5,327.0 L 399.5,328.0 L 399.5,330.0 L 398.5,331.0 L 397.5,332.0 L 397.0,333.5 L 396.5,335.0 L 396.0,336.5 L 395.0,337.5 L 394.0,338.5 L 393.0,339.5 L 392.0,340.5 L 391.5,342.0 L 391.0,343.5 L 390.0,344.5 L 389.0,345.5 L 388.0,346.5 L 387.5,348.0 L 386.5,349.0 L 385.5,350.0 L 384.5,351.0 L 384.0,352.5 L 383.0,353.5 L 382.0,354.5 L 381.5,356.0 L 380.5,357.0 L 379.5,358.0 L 379.0,359.5 L 378.0,360.5 L 377.0,361.5 L 376.0,362.5 L 375.0,363.5 L 374.0,364.5 L 373.0,365.5 L 372.0,366.5 L 371.0,367.5 L 370.0,368.5 L 369.5,370.0 L 368.0,370.5 L 367.5,372.0 L 366.5,373.0 L 365.5,374.0 L 364.5,375.0 L 363.5,376.0 L 362.5,377.0 L 361.5,378.0 L 360.0,378.5 L 359.0,379.5 L 358.0,380.5 L 356.5,381.0 L 355.5,382.0 L 354.5,383.0 L 353.5,384.0 L 352.5,385.0 L 351.5,386.0 L 350.5,387.0 L 350.0,388.5 L 348.5,389.0 L 347.5,390.0 L 346.5,391.0 L 345.5,392.0 L 344.0,392.5 L 343.0,393.5 L 341.5,394.0 L 340.5,395.0 L 339.5,396.0 L 338.0,396.5 L 337.0,397.5 L 336.0,398.5 L 335.0,399.5 L 334.0,400.5 L 333.0,401.5 L 331.5,402.0 L 330.0,402.5 L 329.0,403.5 L 327.5,404.0 L 326.5,405.0 L 325.0,405.5 L 323.5,406.0 L 323.0,407.5 L 321.5,408.0 L 320.5,409.0 L 319.5,410.0 L 318.0,410.5 L 317.0,411.5 L 315.5,412.0 L 314.0,412.5 L 313.0,413.5 L 311.0,413.5 L 310.0,414.5 L 308.5,415.0 L 307.0,415.5 L 306.0,416.5 L 304.5,417.0 L 303.5,418.0 L 302.0,418.5 L 300.5,419.0 L 299.5,420.0 L 298.0,420.5 L 296.5,421.0 L 295.0,421.5 L 293.5,422.0 L 292.0,422.5 L 291.0,423.5 L 289.5,424.0 L 288.0,424.5 L 286.5,425.0 L 285.0,425.5 L 283.5,426.0 L 282.0,426.5 L 280.0,426.5 L 279.0,427.5 L 277.5,428.0 L 276.0,428.5 L 274.5,429.0 L 273.0,429.5 L 271.0,429.5 L 269.5,430.0 L 268.0,430.5 L 267.0,431.5 L 265.5,432.0 L 264.5,432.0 L 263.5,432.0 L 262.0,432.5 L 260.0,432.5 L 259.0,433.5 L 258.0,434.5 L 256.0,434.5 L 254.0,434.5 L 253.0,435.5 L 252.0,434.5 L 250.5,435.0 L 249.0,435.5 L 247.0,435.5 L 246.0,436.5 L 244.5,436.0 L 243.5,436.0 L 242.0,436.5 L 240.0,436.5 L 238.0,436.5 L 236.0,436.5 L 234.0,436.5 L 232.0,436.5 L 230.0,436.5 L 229.0,437.5 L 227.0,437.5 L 225.0,437.5 L 223.0,437.5 L 221.0,437.5 Z"/>
<path d="M 215.5,438.0 L 214.0,437.5 L 212.0,437.5 L 210.0,437.5 L 208.0,437.5 L 206.0,437.5 L 204.0,437.5 L 202.0,437.5 L 200.5,437.0 L 199.5,437.0 L 198.5,437.0 L 197.0,436.5 L 195.5,437.0 L 194.0,437.5 L 192.5,437.0 L 191.0,436.5 L 189.0,436.5 L 187.0,436.5 L 185.0,436.5 L 184.0,435.5 L 182.0,435.5 L 180.0,435.5 L 178.0,435.5 L 176.0,435.5 L 174.5,435.0 L 173.0,434.5 L 171.0,434.5 L 169.5,434.0 L 168.5,433.0 L 167.0,432.5 L 165.0,432.5 L 164.0,431.5 L 162.0,431.5 L 160.5,431.0 L 159.0,430.5 L 157.0,430.5 L 156.0,429.5 L 154.0,429.5 L 153.0,428.5 L 151.0,428.5 L 149.5,428.0 L 148.0,427.5 L 146.5,427.0 L 145.0,426.5 L 144.0,425.5 L 142.0,425.5 L 141.0,424.5 L 139.0,424.5 L 137.5,424.0 L 136.0,423.5 L 135.0,422.5 L 133.0,422.5 L 132.0,421.5 L 131.0,420.5 L 129.0,420.5 L 128.5,419.0 L 127.0,418.5 L 126.0,417.5 L 124.0,417.5 L 122.5,417.0 L 121.0,416.5 L 120.0,415.5 L 118.5,415.0 L 117.0,414.5 L 116.0,413.5 L 114.5,413.0 L 113.0,412.5 L 112.0,411.5 L 110.5,411.0 L 110.0,409.5 L 108.5,409.0 L 107.0,408.5 L 106.0,407.5 L 105.0,406.5 L 104.0,405.5 L 102.5,405.0 L 101.0,404.5 L 100.0,403.5 L 99.0,402.5 L 98.0,401.5 L 96.5,401.0 L 95.0,400.5 L 94.0,399.5 L 92.5,399.0 L 92.0,397.5 L 90.5,397.0 L 89.5,396.0 L 88.0,395.5 L 87.0,394.5 L 86.0,393.5 L 84.5,393.0 L 83.5,392.0 L 82.5,391.0 L 81.0,390.5 L 80.0,389.5 L 79.0,388.5 L 78.0,387.5 L 77.0,386.5 L 76.0,385.5 L 75.0,384.5 L 74.0,383.5 L 73.0,382.5 L 72.0,381.5 L 71.0,380.5 L 70.0,379.5 L 69.0,378.5 L 67.5,378.0 L 66.5,377.0 L 65.5,376.0 L 64.5,375.0 L 63.5,374.0 L 62.5,373.0 L 61.5,372.0 L 62.5,371.0 L 61.0,370.5 L 60.5,369.0 L 59.5,368.0 L 58.5,367.0 L 57.5,366.0 L 56.5,365.0 L 55.5,364.0 L 54.5,363.0 L 53.5,362.0 L 52.5,361.0 L 51.5,360.0 L 51.0,358.5 L 50.5,357.0 L 49.5,356.0 L 48.5,355.0 L 47.5,354.0 L 46.5,353.0 L 45.0,352.5 L 44.5,351.0 L 43.5,350.0 L 42.5,349.0 L 41.5,348.0 L 41.0,346.5 L 40.5,345.0 L 39.5,344.0 L 38.5,343.0 L 37.5,342.0 L 36.5,341.0 L 35.5,340.0 L 35.0,338.5 L 34.5,337.0 L 33.5,336.0 L 33.5,334.0 L 33.5,332.0 L 33.5,330.0 L 32.5,329.0 L 31.0,328.5 L 30.0,327.5 L 29.5,326.0 L 28.5,325.0 L 27.0,324.5 L 26.0,323.5 L 25.5,322.0 L 24.5,321.0 L 24.0,319.5 L 23.5,318.0 L 22.5,317.0 L 22.0,315.5 L 21.5,314.0 L 21.0,312.5 L 20.5,311.0 L 19.0,310.5 L 19.0,309.5 L 19.0,308.5 L 18.5,307.0 L 17.5,306.0 L 17.5,304.0 L 17.0,302.5 L 16.5,301.0 L 16.5,299.0 L 15.5,298.0 L 15.0,296.5 L 14.5,295.0 L 13.5,294.0 L 13.0,292.5 L 12.5,291.0 L 12.5,289.0 L 11.5,288.0 L 10.5,287.0 L 10.5,285.0 L 10.5,283.0 L 9.5,282.0 L 9.5,280.0 L 8.5,279.0 L 8.5,277.0 L 8.0,275.5 L 7.5,274.0 L 7.0,272.5 L 6.5,271.0 L 6.5,269.0 L 6.5,267.0 L 5.5,266.0 L 5.5,264.0 L 4.5,263.0 L 4.5,261.0 L 3.5,260.0 L 3.5,258.0 L 2.5,257.0 L 2.5,255.0 L 2.5,253.0 L 2.5,251.0 L 2.5,249.0 L 2.5,247.0 L 1.5,246.0 L 0.5,245.0 L 1.0,243.5 L 1.5,242.0 L 1.5,240.0 L 1.5,238.0 L 0.5,237.0 L 0.5,235.0 L 0.5,233.0 L 0.5,231.0 L 0.5,229.0 L 0.5,227.0 L 0.5,225.0 Z"/>
<path d="M 219.5,303.0 L 221.0,302.5 L 222.0,301.5 L 223.5,301.0 L 225.0,300.5 L 226.0,299.5 L 227.0,298.5 L 228.0,297.5 L 229.0,296.5 L 230.0,295.5 L 230.5,294.0 L 231.5,293.0 L 232.0,291.5 L 232.5,290.0 L 233.0,288.5 L 233.5,287.0 L 233.5,285.0 L 233.0,283.5 L 232.5,282.0 L 232.5,280.0 L 231.5,279.0 L 231.0,277.5 L 230.5,276.0 L 229.5,275.0 L 228.5,274.0 L 227.5,273.0 L 226.5,272.0 L 225.5,271.0 L 224.0,270.5 L 223.0,269.5 L 221.0,269.5 L 220.0,268.5 L 218.0,268.5 L 216.5,268.0 L 215.0,267.5 L 213.5,268.0 L 212.0,268.5 L 210.0,268.5 L 209.0,269.5 L 207.5,270.0 L 206.0,270.5 L 205.0,271.5 L 203.5,272.0 L 202.5,273.0 L 201.5,274.0 L 200.5,275.0 L 199.5,276.0 L 199.0,277.5 L 198.5,279.0 L 197.5,280.0 L 197.5,282.0 L 196.5,283.0 L 196.5,285.0 L 196.5,287.0 L 196.5,289.0 L 197.5,290.0 L 197.5,292.0 L 198.5,293.0 L 199.0,294.5 L 199.5,296.0 L 200.5,297.0 L 201.5,298.0 L 202.5,299.0 L 203.5,300.0 L 205.0,300.5 L 206.0,301.5 L 207.5,302.0 L 209.0,302.5 L 210.5,303.0 L 212.0,303.5 L 214.0,303.5 L 216.0,303.5 L 218.0,303.5 L 219.5,303.0 Z"/>
<path d="M 145.5,303.0 L 147.0,302.5 L 149.0,302.5 L 150.0,301.5 L 151.5,301.0 L 152.5,300.0 L 153.5,299.0 L 154.5,298.0 L 155.5,297.0 L 156.5,296.0 L 157.5,295.0 L 156.0,294.5 L 155.0,293.5 L 153.5,293.0 L 152.5,293.0 L 151.5,294.0 L 150.0,294.5 L 149.0,295.5 L 147.0,295.5 L 145.0,295.5 L 143.0,295.5 L 141.5,295.0 L 140.0,294.5 L 139.0,293.5 L 138.0,292.5 L 137.5,291.0 L 136.5,290.0 L 136.5,288.0 L 136.5,286.0 L 136.5,284.0 L 136.5,282.0 L 137.5,281.0 L 138.5,280.0 L 139.0,278.5 L 140.0,277.5 L 141.5,277.0 L 143.0,276.5 L 145.0,276.5 L 147.0,276.5 L 149.0,276.5 L 150.0,277.5 L 151.5,278.0 L 152.5,279.0 L 153.5,280.0 L 154.0,281.5 L 154.5,283.0 L 154.5,285.0 L 155.5,286.0 L 155.0,287.5 L 154.5,289.0 L 155.0,290.5 L 156.5,291.0 L 157.5,292.0 L 158.0,293.5 L 158.5,292.0 L 159.5,291.0 L 159.5,289.0 L 160.5,288.0 L 160.5,286.0 L 160.5,284.0 L 159.5,283.0 L 159.5,281.0 L 159.0,279.5 L 158.0,278.5 L 158.0,279.5 L 158.5,281.0 L 157.0,281.5 L 156.0,282.5 L 155.5,281.0 L 154.5,280.0 L 155.0,278.5 L 155.5,277.0 L 156.5,277.0 L 157.5,277.0 L 156.5,276.0 L 155.5,276.0 L 154.5,276.0 L 153.5,275.0 L 152.5,274.0 L 154.0,273.5 L 155.0,274.5 L 155.0,273.5 L 154.0,272.5 L 152.5,272.0 L 151.5,271.0 L 150.0,270.5 L 149.0,269.5 L 147.0,269.5 L 146.0,268.5 L 144.0,268.5 L 142.0,268.5 L 140.0,268.5 L 138.0,268.5 L 136.0,268.5 L 135.0,269.5 L 133.5,270.0 L 132.0,270.5 L 131.0,271.5 L 130.0,272.5 L 129.0,273.5 L 128.0,274.5 L 127.0,275.5 L 126.0,276.5 L 125.5,278.0 L 124.5,279.0 L 124.5,281.0 L 123.5,282.0 L 123.5,284.0 L 123.5,286.0 L 123.5,288.0 L 124.0,289.5 L 124.5,291.0 L 124.5,293.0 L 125.5,294.0 L 126.5,295.0 L 127.0,296.5 L 128.0,297.5 L 129.0,298.5 L 130.0,299.5 L 131.0,300.5 L 132.0,301.5 L 133.5,302.0 L 135.0,302.5 L 137.0,302.5 L 138.0,303.5 L 140.0,303.5 L 142.0,303.5 L 144.0,303.5 L 145.5,303.0 Z"/>
<path d="M 95.0,278.5 L 93.0,278.5 L 91.0,278.5 L 89.5,278.0 L 91.0,277.5 L 92.0,276.5 L 93.5,277.0 L 95.0,277.5 L 95.0,278.5 Z"/>
<path d="M 202.0,280.5 L 200.0,280.5 L 199.5,279.0 L 200.0,277.5 L 201.0,276.5 L 202.0,277.5 L 202.5,279.0 L 202.0,280.5 Z"/>
<path d="M 211.0,296.5 L 209.5,296.0 L 208.0,295.5 L 206.5,295.0 L 205.5,294.0 L 204.0,293.5 L 203.0,292.5 L 202.5,291.0 L 201.5,290.0 L 201.5,288.0 L 201.5,286.0 L 201.5,284.0 L 201.5,282.0 L 202.5,281.0 L 203.5,280.0 L 204.0,278.5 L 205.5,278.0 L 206.5,277.0 L 208.0,276.5 L 210.0,276.5 L 212.0,276.5 L 214.0,276.5 L 215.0,277.5 L 216.5,278.0 L 217.5,279.0 L 218.5,280.0 L 219.5,281.0 L 220.0,282.5 L 220.5,284.0 L 220.5,286.0 L 220.5,288.0 L 220.0,289.5 L 219.5,291.0 L 218.5,292.0 L 217.5,293.0 L 216.5,294.0 L 215.5,295.0 L 214.0,295.5 L 212.0,295.5 L 211.0,296.5 Z"/>
<path d="M 242.5,325.0 L 243.0,323.5 L 243.5,322.0 L 244.0,320.5 L 244.5,319.0 L 245.0,317.5 L 245.5,316.0 L 246.5,315.0 L 247.5,314.0 L 248.0,312.5 L 249.0,311.5 L 250.0,310.5 L 251.0,309.5 L 252.0,308.5 L 253.0,307.5 L 254.0,306.5 L 255.5,306.0 L 257.0,305.5 L 258.0,304.5 L 258.5,303.0 L 258.0,301.5 L 257.5,300.0 L 257.5,298.0 L 257.5,296.0 L 256.5,295.0 L 256.5,293.0 L 256.5,291.0 L 256.0,289.5 L 255.5,288.0 L 255.0,286.5 L 253.0,286.5 L 251.0,286.5 L 249.0,286.5 L 247.0,286.5 L 245.0,286.5 L 243.0,286.5 L 243.0,287.5 L 245.0,287.5 L 245.0,288.5 L 243.0,288.5 L 241.0,288.5 L 240.0,287.5 L 239.5,289.0 L 239.5,291.0 L 238.5,292.0 L 238.5,294.0 L 237.5,295.0 L 237.0,296.5 L 236.5,298.0 L 235.5,299.0 L 235.0,300.5 L 234.0,301.5 L 233.0,302.5 L 232.0,303.5 L 231.0,304.5 L 229.5,305.0 L 228.5,306.0 L 227.5,307.0 L 226.0,307.5 L 225.0,308.5 L 223.0,308.5 L 222.0,309.5 L 220.0,309.5 L 219.0,310.5 L 217.0,310.5 L 215.0,310.5 L 213.0,310.5 L 211.0,310.5 L 210.0,309.5 L 208.0,309.5 L 207.0,308.5 L 205.0,308.5 L 204.0,307.5 L 202.5,307.0 L 201.5,306.0 L 200.0,305.5 L 199.0,304.5 L 198.0,303.5 L 197.0,302.5 L 196.0,301.5 L 195.0,300.5 L 194.0,299.5 L 193.5,298.0 L 192.5,297.0 L 192.0,295.5 L 191.5,294.0 L 191.0,292.5 L 190.5,291.0 L 190.5,289.0 L 189.0,288.5 L 188.0,287.5 L 187.0,286.5 L 185.5,286.0 L 184.0,285.5 L 183.0,284.5 L 181.0,284.5 L 180.0,283.5 L 178.0,283.5 L 176.5,284.0 L 175.0,284.5 L 173.5,285.0 L 172.0,285.5 L 171.0,286.5 L 169.5,287.0 L 168.5,288.0 L 167.5,289.0 L 166.5,290.0 L 166.5,292.0 L 165.5,293.0 L 165.0,294.5 L 164.5,296.0 L 163.5,297.0 L 163.0,298.5 L 162.0,299.5 L 161.0,300.5 L 160.0,301.5 L 159.0,302.5 L 158.0,303.5 L 157.0,304.5 L 156.0,305.5 L 154.5,306.0 L 153.5,307.0 L 152.0,307.5 L 151.0,308.5 L 149.5,309.0 L 148.0,309.5 L 146.0,309.5 L 145.0,310.5 L 143.0,310.5 L 141.0,310.5 L 139.0,310.5 L 137.5,310.0 L 136.0,309.5 L 134.0,309.5 L 133.0,308.5 L 131.5,308.0 L 130.0,307.5 L 129.0,306.5 L 127.5,306.0 L 126.5,305.0 L 125.5,304.0 L 124.5,303.0 L 123.5,302.0 L 122.5,301.0 L 121.5,300.0 L 120.5,299.0 L 120.0,297.5 L 119.5,296.0 L 118.5,295.0 L 118.5,293.0 L 117.5,292.0 L 117.5,290.0 L 117.5,288.0 L 117.0,286.5 L 115.0,286.5 L 113.0,286.5 L 111.0,286.5 L 109.0,286.5 L 107.0,286.5 L 107.0,287.5 L 107.0,288.5 L 105.0,288.5 L 103.0,288.5 L 103.0,287.5 L 103.0,286.5 L 101.5,287.0 L 101.5,289.0 L 101.0,290.5 L 100.5,292.0 L 100.5,294.0 L 100.5,296.0 L 99.5,297.0 L 99.5,299.0 L 99.5,301.0 L 99.0,302.5 L 99.0,303.5 L 100.0,304.5 L 101.5,305.0 L 103.0,305.5 L 104.0,306.5 L 105.5,307.0 L 106.5,308.0 L 107.5,309.0 L 108.5,310.0 L 109.5,311.0 L 110.5,312.0 L 111.5,313.0 L 112.0,314.5 L 113.0,315.5 L 114.0,316.5 L 114.5,318.0 L 115.5,318.0 L 116.5,318.0 L 116.0,319.5 L 115.5,321.0 L 116.5,322.0 L 116.5,324.0 L 117.0,325.5 L 119.0,325.5 L 121.0,325.5 L 123.0,325.5 L 125.0,325.5 L 127.0,325.5 L 129.0,325.5 L 131.0,325.5 L 133.0,325.5 L 135.0,325.5 L 137.0,325.5 L 139.0,325.5 L 141.0,325.5 L 143.0,325.5 L 145.0,325.5 L 147.0,325.5 L 149.0,325.5 L 151.0,325.5 L 153.0,325.5 L 155.0,325.5 L 157.0,325.5 L 159.0,325.5 L 161.0,325.5 L 163.0,325.5 L 165.0,325.5 L 167.0,325.5 L 169.0,325.5 L 171.0,325.5 L 173.0,325.5 L 175.0,325.5 L 177.0,325.5 L 179.0,325.5 L 181.0,325.5 L 183.0,325.5 L 185.0,325.5 L 187.0,325.5 L 189.0,325.5 L 191.0,325.5 L 193.0,325.5 L 195.0,325.5 L 197.0,325.5 L 199.0,325.5 L 201.0,325.5 L 203.0,325.5 L 205.0,325.5 L 207.0,325.5 L 209.0,325.5 L 211.0,325.5 L 213.0,325.5 L 215.0,325.5 L 217.0,325.5 L 219.0,325.5 L 221.0,325.5 L 223.0,325.5 L 225.0,325.5 L 227.0,325.5 L 229.0,325.5 L 231.0,325.5 L 233.0,325.5 L 235.0,325.5 L 237.0,325.5 L 239.0,325.5 L 241.0,325.5 L 242.5,325.0 Z"/>
<path d="M 269.0,288.5 L 267.0,288.5 L 265.0,288.5 L 263.5,288.0 L 265.0,287.5 L 267.0,287.5 L 269.0,287.5 L 269.0,288.5 Z"/>
<path d="M 226.0,298.5 L 224.5,298.0 L 225.5,297.0 L 226.5,296.0 L 227.5,295.0 L 228.5,295.0 L 228.0,296.5 L 227.0,297.5 L 226.0,298.5 Z"/>
<path d="M 102.0,303.5 L 100.5,303.0 L 101.5,302.0 L 100.5,301.0 L 100.5,299.0 L 101.0,297.5 L 101.5,299.0 L 102.0,300.5 L 102.5,302.0 L 102.0,303.5 Z"/>
<path d="M 179.0,316.5 L 177.5,316.0 L 176.0,315.5 L 175.0,314.5 L 173.5,314.0 L 172.5,313.0 L 171.5,312.0 L 170.5,311.0 L 169.5,310.0 L 168.5,309.0 L 168.0,307.5 L 167.5,306.0 L 167.5,304.0 L 168.5,303.0 L 169.5,302.0 L 171.0,301.5 L 172.0,300.5 L 174.0,300.5 L 176.0,300.5 L 178.0,300.5 L 180.0,300.5 L 182.0,300.5 L 184.0,300.5 L 186.0,300.5 L 187.0,301.5 L 188.0,302.5 L 189.0,303.5 L 189.5,305.0 L 189.0,306.5 L 188.5,308.0 L 187.5,309.0 L 187.0,310.5 L 186.0,311.5 L 185.0,312.5 L 184.0,313.5 L 183.0,314.5 L 181.5,315.0 L 180.0,315.5 L 179.0,316.5 Z"/>
<path d="M 218.0,302.5 L 216.0,302.5 L 214.0,302.5 L 212.0,302.5 L 210.5,302.0 L 212.0,301.5 L 214.0,301.5 L 216.0,301.5 L 218.0,301.5 L 218.0,302.5 Z"/>
<path d="M 99.5,341.0 L 100.0,339.5 L 100.5,338.0 L 100.0,336.5 L 99.5,335.0 L 99.5,333.0 L 99.0,331.5 L 98.5,330.0 L 98.5,328.0 L 97.5,327.0 L 97.5,325.0 L 99.0,324.5 L 100.0,323.5 L 101.5,324.0 L 102.5,325.0 L 103.0,326.5 L 103.5,328.0 L 104.5,329.0 L 104.5,331.0 L 105.5,332.0 L 106.5,332.0 L 106.5,330.0 L 107.0,328.5 L 107.0,327.5 L 106.0,326.5 L 106.0,325.5 L 107.5,326.0 L 108.5,327.0 L 109.5,328.0 L 109.5,330.0 L 110.0,331.5 L 110.5,330.0 L 110.5,328.0 L 110.5,326.0 L 109.5,325.0 L 109.5,323.0 L 108.5,322.0 L 108.5,320.0 L 107.5,319.0 L 106.5,319.0 L 105.5,319.0 L 104.5,318.0 L 106.0,317.5 L 106.0,316.5 L 105.0,315.5 L 104.0,314.5 L 103.0,313.5 L 102.0,312.5 L 100.5,312.0 L 99.0,311.5 L 98.0,310.5 L 96.5,310.0 L 95.0,309.5 L 93.0,309.5 L 91.0,309.5 L 90.0,308.5 L 88.0,308.5 L 86.0,308.5 L 84.0,308.5 L 82.5,309.0 L 81.0,309.5 L 79.0,309.5 L 78.0,310.5 L 76.5,311.0 L 75.0,311.5 L 74.0,312.5 L 72.5,313.0 L 71.5,314.0 L 70.5,315.0 L 69.5,316.0 L 68.5,317.0 L 67.5,318.0 L 67.5,320.0 L 66.5,321.0 L 66.5,323.0 L 66.5,325.0 L 66.5,327.0 L 67.0,328.5 L 67.5,330.0 L 68.5,331.0 L 69.0,332.5 L 70.0,331.5 L 71.0,330.5 L 73.0,330.5 L 73.5,332.0 L 73.5,334.0 L 72.0,334.5 L 70.5,335.0 L 71.5,336.0 L 72.5,337.0 L 73.5,337.0 L 75.0,336.5 L 76.0,337.5 L 76.5,336.0 L 75.5,335.0 L 75.5,333.0 L 74.5,332.0 L 75.5,331.0 L 76.0,329.5 L 77.5,329.0 L 79.0,328.5 L 80.0,329.5 L 80.5,331.0 L 81.5,332.0 L 81.5,334.0 L 82.5,335.0 L 82.5,337.0 L 83.5,338.0 L 84.0,339.5 L 85.0,340.5 L 86.0,341.5 L 86.0,340.5 L 85.5,339.0 L 86.0,337.5 L 87.0,336.5 L 88.0,337.5 L 88.5,339.0 L 88.0,340.5 L 88.0,341.5 L 89.0,340.5 L 89.5,339.0 L 89.5,337.0 L 88.5,336.0 L 88.5,334.0 L 87.5,333.0 L 87.0,331.5 L 87.0,330.5 L 87.5,329.0 L 89.0,328.5 L 91.0,328.5 L 92.0,329.5 L 92.5,331.0 L 93.0,332.5 L 93.5,334.0 L 94.5,335.0 L 95.0,336.5 L 95.5,338.0 L 96.0,339.5 L 97.0,340.5 L 98.0,341.5 L 99.5,341.0 Z"/>
<path d="M 273.5,341.0 L 274.5,340.0 L 275.0,338.5 L 275.5,337.0 L 276.5,336.0 L 277.0,334.5 L 277.5,333.0 L 278.0,331.5 L 279.0,330.5 L 280.0,329.5 L 281.0,328.5 L 282.5,329.0 L 283.5,330.0 L 284.5,331.0 L 284.0,332.5 L 283.5,334.0 L 283.0,335.5 L 282.5,337.0 L 281.5,338.0 L 282.0,339.5 L 283.0,340.5 L 284.0,339.5 L 285.5,339.0 L 286.5,338.0 L 287.5,337.0 L 288.5,336.0 L 289.0,334.5 L 290.0,333.5 L 290.5,332.0 L 291.5,331.0 L 291.5,329.0 L 292.5,328.0 L 292.5,326.0 L 292.5,324.0 L 292.5,322.0 L 292.5,320.0 L 291.5,319.0 L 291.0,317.5 L 290.0,316.5 L 289.0,315.5 L 288.0,314.5 L 287.0,313.5 L 286.0,312.5 L 284.5,312.0 L 283.0,311.5 L 282.0,310.5 L 280.0,310.5 L 279.0,309.5 L 277.0,309.5 L 275.0,309.5 L 274.0,308.5 L 272.0,308.5 L 270.0,308.5 L 268.0,308.5 L 267.0,309.5 L 265.0,309.5 L 263.0,309.5 L 262.0,310.5 L 260.0,310.5 L 259.0,311.5 L 257.5,312.0 L 256.5,313.0 L 255.5,314.0 L 254.5,315.0 L 253.5,316.0 L 252.5,317.0 L 254.0,317.5 L 254.0,318.5 L 253.0,319.5 L 252.0,318.5 L 251.5,320.0 L 251.0,321.5 L 250.5,323.0 L 249.5,324.0 L 249.5,326.0 L 249.5,328.0 L 249.5,330.0 L 249.5,332.0 L 249.5,334.0 L 250.0,335.5 L 251.0,336.5 L 252.5,336.0 L 252.5,334.0 L 253.5,333.0 L 253.0,331.5 L 252.0,332.5 L 251.0,331.5 L 250.5,330.0 L 250.5,328.0 L 250.5,326.0 L 251.0,324.5 L 252.0,323.5 L 253.0,324.5 L 253.5,326.0 L 253.5,328.0 L 253.5,330.0 L 254.5,330.0 L 255.0,328.5 L 255.5,327.0 L 256.5,326.0 L 257.0,324.5 L 258.0,323.5 L 259.5,324.0 L 261.0,324.5 L 261.5,326.0 L 261.5,328.0 L 260.5,329.0 L 260.5,331.0 L 259.5,332.0 L 259.5,334.0 L 259.0,335.5 L 258.5,337.0 L 258.5,339.0 L 259.0,340.5 L 261.0,340.5 L 262.0,339.5 L 262.0,338.5 L 261.0,339.5 L 259.5,339.0 L 259.5,337.0 L 260.0,335.5 L 261.0,334.5 L 262.5,335.0 L 262.5,337.0 L 263.5,337.0 L 264.0,335.5 L 264.5,334.0 L 265.5,333.0 L 264.0,332.5 L 263.0,331.5 L 262.5,330.0 L 262.5,328.0 L 262.5,326.0 L 263.5,326.0 L 264.0,327.5 L 265.0,328.5 L 265.5,330.0 L 266.0,331.5 L 266.5,330.0 L 267.5,329.0 L 269.0,328.5 L 271.0,328.5 L 271.5,330.0 L 271.5,332.0 L 272.0,333.5 L 273.5,334.0 L 274.5,335.0 L 274.5,337.0 L 274.0,338.5 L 273.0,339.5 L 272.0,338.5 L 270.5,338.0 L 270.0,336.5 L 269.5,338.0 L 269.5,340.0 L 270.0,341.5 L 272.0,341.5 L 273.5,341.0 Z"/>
<path d="M 180.0,323.5 L 178.0,323.5 L 176.5,323.0 L 175.5,322.0 L 176.5,321.0 L 177.0,319.5 L 179.0,319.5 L 180.0,320.5 L 180.5,322.0 L 180.0,323.5 Z"/>
<path d="M 176.0,324.5 L 174.0,324.5 L 172.0,324.5 L 170.0,324.5 L 168.0,324.5 L 166.0,324.5 L 164.0,324.5 L 162.0,324.5 L 160.0,324.5 L 158.0,324.5 L 156.0,324.5 L 154.0,324.5 L 152.0,324.5 L 150.0,324.5 L 148.0,324.5 L 146.0,324.5 L 144.0,324.5 L 142.0,324.5 L 140.0,324.5 L 138.0,324.5 L 136.0,324.5 L 134.0,324.5 L 132.0,324.5 L 130.0,324.5 L 128.0,324.5 L 126.0,324.5 L 124.0,324.5 L 122.0,324.5 L 120.0,324.5 L 118.5,324.0 L 119.5,323.0 L 121.0,322.5 L 122.0,323.5 L 124.0,323.5 L 126.0,323.5 L 128.0,323.5 L 130.0,323.5 L 132.0,323.5 L 134.0,323.5 L 136.0,323.5 L 138.0,323.5 L 140.0,323.5 L 142.0,323.5 L 144.0,323.5 L 146.0,323.5 L 148.0,323.5 L 150.0,323.5 L 152.0,323.5 L 154.0,323.5 L 156.0,323.5 L 158.0,323.5 L 160.0,323.5 L 162.0,323.5 L 164.0,323.5 L 166.0,323.5 L 168.0,323.5 L 170.0,323.5 L 172.0,323.5 L 174.0,323.5 L 176.0,323.5 L 176.0,324.5 Z"/>
<path d="M 241.0,324.5 L 239.0,324.5 L 237.0,324.5 L 235.0,324.5 L 233.0,324.5 L 231.0,324.5 L 229.0,324.5 L 227.0,324.5 L 225.0,324.5 L 223.0,324.5 L 221.0,324.5 L 219.0,324.5 L 217.0,324.5 L 215.0,324.5 L 213.0,324.5 L 211.0,324.5 L 209.0,324.5 L 207.0,324.5 L 205.0,324.5 L 203.0,324.5 L 201.0,324.5 L 199.0,324.5 L 197.0,324.5 L 195.0,324.5 L 193.0,324.5 L 191.0,324.5 L 189.0,324.5 L 187.0,324.5 L 185.0,324.5 L 183.0,324.5 L 182.5,323.0 L 183.5,323.0 L 185.0,323.5 L 187.0,323.5 L 189.0,323.5 L 191.0,323.5 L 193.0,323.5 L 195.0,323.5 L 197.0,323.5 L 199.0,323.5 L 201.0,323.5 L 203.0,323.5 L 205.0,323.5 L 207.0,323.5 L 209.0,323.5 L 211.0,323.5 L 213.0,323.5 L 215.0,323.5 L 217.0,323.5 L 219.0,323.5 L 221.0,323.5 L 223.0,323.5 L 225.0,323.5 L 227.0,323.5 L 229.0,323.5 L 231.0,323.5 L 233.0,323.5 L 235.0,323.5 L 237.0,323.5 L 238.5,323.0 L 240.0,322.5 L 241.5,323.0 L 241.0,324.5 Z"/>
<path d="M 343.0,324.5 L 341.0,324.5 L 339.0,324.5 L 337.0,324.5 L 335.0,324.5 L 333.0,324.5 L 331.0,324.5 L 329.0,324.5 L 327.0,324.5 L 325.0,324.5 L 323.0,324.5 L 321.0,324.5 L 319.0,324.5 L 317.0,324.5 L 315.0,324.5 L 313.0,324.5 L 311.0,324.5 L 309.0,324.5 L 307.0,324.5 L 305.0,324.5 L 303.0,324.5 L 301.5,324.0 L 303.0,323.5 L 305.0,323.5 L 307.0,323.5 L 309.0,323.5 L 311.0,323.5 L 313.0,323.5 L 315.0,323.5 L 317.0,323.5 L 319.0,323.5 L 321.0,323.5 L 323.0,323.5 L 325.0,323.5 L 327.0,323.5 L 329.0,323.5 L 331.0,323.5 L 333.0,323.5 L 335.0,323.5 L 337.0,323.5 L 339.0,323.5 L 341.0,323.5 L 343.0,323.5 L 343.0,324.5 Z"/>
<path d="M 98.0,334.5 L 96.0,334.5 L 94.5,334.0 L 94.0,332.5 L 93.5,331.0 L 94.5,330.0 L 95.0,328.5 L 96.5,329.0 L 97.0,330.5 L 97.5,332.0 L 98.0,333.5 L 98.0,334.5 Z"/>
<path d="M 84.0,334.5 L 82.5,334.0 L 82.5,332.0 L 83.0,330.5 L 85.0,330.5 L 85.5,332.0 L 84.5,333.0 L 84.0,334.5 Z"/>
<path d="M 286.0,337.5 L 284.5,337.0 L 283.5,336.0 L 284.5,335.0 L 286.0,334.5 L 287.0,335.5 L 287.0,336.5 L 286.0,337.5 Z"/>
</g></svg>